<?xml version="1.0" encoding="UTF-8"?>
<svg version="1.1" xmlns="http://www.w3.org/2000/svg" width="2300" height="3000">
<path d="M0 0 C759 0 1518 0 2300 0 C2300 990 2300 1980 2300 3000 C1541 3000 782 3000 0 3000 C0 2010 0 1020 0 0 Z " fill="#EFA67F" transform="translate(0,0)"/>
<path d="M0 0 C25.9635907 14.63990628 37.94564854 49.71037403 48.0390625 75.8984375 C48.49168961 77.07162285 48.49168961 77.07162285 48.95346069 78.26850891 C50.44896063 82.15250353 51.93225371 86.04057284 53.39697266 89.9362793 C60.64902845 109.05808602 69.24434709 126.20099475 83.5703125 140.9765625 C84.29863281 141.73324219 85.02695312 142.48992187 85.77734375 143.26953125 C88.90791216 146.46184657 92.1216669 149.49451176 95.5078125 152.4140625 C110.12994791 165.12275441 120.42720487 178.53892322 123.5703125 197.9765625 C124.529375 198.13125 124.529375 198.13125 125.5078125 198.2890625 C126.1884375 198.5159375 126.8690625 198.7428125 127.5703125 198.9765625 C127.9003125 199.9665625 128.2303125 200.9565625 128.5703125 201.9765625 C135.82126334 199.1483908 143.02523638 196.29292461 150.0703125 192.9765625 C168.72796911 184.24849713 188.3574408 177.24964412 208.40185547 172.49658203 C210.36194475 172.02653135 212.31258271 171.51748813 214.26171875 171.00390625 C243.25952222 164.27841785 268.88612829 169.56219401 294.5703125 182.9765625 C295.25287109 183.3276709 295.93542969 183.6787793 296.63867188 184.04052734 C306.02897764 188.91813435 316.83705157 195.30018673 323.84667969 203.46289062 C326.31407445 205.62972455 328.94129413 206.46729708 332.01171875 207.61328125 C332.64701508 207.85369644 333.2823114 208.09411163 333.93685913 208.34181213 C335.29571005 208.8557348 336.65582171 209.36633414 338.01705933 209.87390137 C341.56590082 211.19927176 345.10330098 212.55440205 348.640625 213.91015625 C349.33552536 214.17615631 350.03042572 214.44215637 350.74638367 214.71621704 C363.74374855 219.7131546 376.23572274 225.67368593 388.63330078 231.99414062 C390.52246389 232.95229444 392.41773762 233.89677906 394.31640625 234.8359375 C415.55761173 245.34563798 436.22824916 256.52073541 456.37109375 269.0078125 C459.09879907 270.68640039 461.8408124 272.33719818 464.59350586 273.97436523 C487.71055076 287.72977972 510.26504471 302.37159515 532.60791016 317.34179688 C538.9780188 321.60873323 545.35445021 325.85537552 551.8203125 329.9765625 C567.80773475 340.18084495 583.55908064 350.80485602 599.140625 361.6171875 C601.71060876 363.39669797 604.30527195 365.13527748 606.91015625 366.86328125 C611.65798583 370.02014682 616.33979357 373.26563458 621.0078125 376.5390625 C621.87108154 377.14403564 622.73435059 377.74900879 623.6237793 378.37231445 C632.33340625 384.49029243 640.96601987 390.711612 649.5703125 396.9765625 C650.23933594 397.46253906 650.90835937 397.94851563 651.59765625 398.44921875 C659.82094932 404.42535451 667.94537891 410.51219094 675.97753906 416.74267578 C678.12789437 418.40850897 680.28414623 420.06660806 682.44091797 421.72412109 C683.52636268 422.55845303 684.61132471 423.3934133 685.69580078 424.22900391 C688.39664444 426.3096358 691.10266708 428.38275718 693.8203125 430.44140625 C700.53513096 435.541562 707.03534118 440.83394772 713.44140625 446.31640625 C716.34082833 448.79435398 719.29212661 451.20315268 722.2578125 453.6015625 C726.80549815 457.29697324 731.16556748 461.16083129 735.4765625 465.12890625 C737.63364513 467.11601589 737.63364513 467.11601589 740.5703125 468.9765625 C740.5703125 469.6365625 740.5703125 470.2965625 740.5703125 470.9765625 C741.15683594 471.24597656 741.74335937 471.51539063 742.34765625 471.79296875 C744.56740529 472.97501437 746.24870618 474.25756634 748.1328125 475.9140625 C748.71160156 476.41808594 749.29039063 476.92210937 749.88671875 477.44140625 C753.27162829 480.52787829 753.27162829 480.52787829 754.5703125 481.9765625 C754.5703125 482.6365625 754.5703125 483.2965625 754.5703125 483.9765625 C759.97489263 483.44620651 763.79619193 481.50822247 768.4453125 478.9140625 C769.96534418 478.08836628 771.48619675 477.26417965 773.0078125 476.44140625 C773.77222656 476.02616699 774.53664063 475.61092773 775.32421875 475.18310547 C778.66798836 473.38691966 782.04882314 471.67052193 785.4453125 469.9765625 C786.41670166 469.49207642 786.41670166 469.49207642 787.40771484 468.99780273 C793.40797909 466.02552427 799.4637204 463.17234643 805.52319336 460.32324219 C810.39014275 458.02911006 815.21172859 455.66477373 820.0078125 453.2265625 C884.76060986 420.45399336 959.03860524 386.45670753 1032.5703125 383.9765625 C1033.79113525 383.93354004 1033.79113525 383.93354004 1035.03662109 383.88964844 C1058.76557961 383.17045115 1079.58684854 387.06271618 1101.1953125 396.9765625 C1110.84086516 401.24832669 1121.16207898 403.49744362 1131.34619141 406.1328125 C1144.0046696 409.44552647 1156.52062915 413.21640828 1168.97387695 417.22607422 C1176.2988102 419.58395466 1183.6487677 421.8526274 1191.0078125 424.1015625 C1214.56684004 431.32378718 1214.56684004 431.32378718 1222.921875 434.75390625 C1229.56640208 437.43492178 1236.35264277 439.70374655 1243.13519287 442.00509644 C1246.28917686 443.07543772 1249.44106253 444.15189433 1252.5930481 445.22810364 C1254.15210158 445.7604197 1255.71124364 446.29247644 1257.27047729 446.82426453 C1262.66962394 448.66619097 1268.06268435 450.5243323 1273.4453125 452.4140625 C1274.16259521 452.66559082 1274.87987793 452.91711914 1275.61889648 453.17626953 C1280.45420369 454.87495519 1285.28618068 456.58303358 1290.11804199 458.29148865 C1293.41617426 459.45702103 1296.71504523 460.62045483 1300.01397705 461.78372192 C1301.65084932 462.36154877 1303.28737665 462.94035387 1304.92352295 463.52023315 C1313.5362018 466.5726806 1322.13930951 469.54843623 1330.90380859 472.14038086 C1333.4184995 472.92895588 1335.82626992 473.83823488 1338.2578125 474.8515625 C1348.42473378 479.04665138 1358.99990199 482.28076997 1369.5703125 485.2890625 C1378.17966045 487.74414863 1386.60754802 490.69747674 1395.046875 493.67895508 C1401.54221733 495.96585686 1408.06564251 498.08657519 1414.65527344 500.08569336 C1418.15069781 501.15393486 1421.60933851 502.30173647 1425.0703125 503.4765625 C1430.69280564 505.36977719 1436.34014182 507.15909612 1442.015625 508.88671875 C1446.24973821 510.18486994 1450.47292291 511.51586071 1454.6953125 512.8515625 C1455.50266846 513.10671631 1456.31002441 513.36187012 1457.1418457 513.62475586 C1461.19862558 514.9075527 1465.25428377 516.19379365 1469.30859375 517.484375 C1470.87490608 517.98206651 1472.44131237 518.4794624 1474.0078125 518.9765625 C1475.17666992 519.3475708 1475.17666992 519.3475708 1476.36914062 519.72607422 C1481.28362382 521.27775061 1486.21323634 522.76818631 1491.15600586 524.22705078 C1499.60806538 526.72179386 1507.92063202 529.42960332 1516.1875 532.484375 C1519.71348859 533.73756994 1523.28100702 534.75052109 1526.88671875 535.75 C1535.0465063 538.04928056 1543.03032274 540.79911516 1551.03775024 543.57669067 C1562.67738424 547.61288621 1574.32777899 551.61055358 1586.0546875 555.38671875 C1586.88951157 555.65555878 1587.72433563 555.9243988 1588.5844574 556.2013855 C1592.5333729 557.47015251 1596.48496446 558.72996035 1600.43969727 559.98046875 C1607.66681676 562.27970142 1614.73612462 564.7522081 1621.70678711 567.7590332 C1624.67018072 569.01902501 1627.65847306 570.17373162 1630.671875 571.30859375 C1662.77861035 583.46780939 1693.82996621 597.97756655 1721.98046875 617.7734375 C1727.45248031 621.59220302 1733.01823094 625.27517479 1738.5703125 628.9765625 C1738.5703125 935.2165625 1738.5703125 1241.4565625 1738.5703125 1556.9765625 C979.5703125 1556.9765625 220.5703125 1556.9765625 -561.4296875 1556.9765625 C-561.4296875 1247.7665625 -561.4296875 938.5565625 -561.4296875 619.9765625 C-551.14242052 612.54686968 -540.85856453 605.15152692 -530.48046875 597.85546875 C-527.34829125 595.64161055 -524.25616705 593.38053573 -521.17919922 591.09082031 C-512.9076576 584.93622083 -504.39460053 579.16506869 -495.85083008 573.39599609 C-488.60479044 568.49090048 -481.47245699 563.4579805 -474.40527344 558.29956055 C-469.53736947 554.75308921 -464.58724998 551.37049738 -459.55078125 548.06640625 C-455.62688045 545.43901335 -451.77947285 542.71094601 -447.9296875 539.9765625 C-441.17490328 535.18248283 -434.3476504 530.53274774 -427.4296875 525.9765625 C-424.42770357 523.9795361 -421.42882041 521.97786714 -418.4296875 519.9765625 C-417.0352057 519.04680084 -415.64067573 518.1171114 -414.24609375 517.1875 C-413.55652588 516.72778809 -412.86695801 516.26807617 -412.15649414 515.79443359 C-406.84130859 512.25097656 -401.52612305 508.70751953 -396.2109375 505.1640625 C-395.5204834 504.70370605 -394.8300293 504.24334961 -394.11865234 503.76904297 C-392.6790732 502.80943372 -391.2392885 501.85013277 -389.79931641 500.89111328 C-385.25192584 497.86177282 -380.70999674 494.82446105 -376.171875 491.78125 C-361.9029357 482.22102147 -347.53320876 472.84755031 -333.03662109 463.63476562 C-329.66124054 461.48777324 -326.29373748 459.32875123 -322.9296875 457.1640625 C-321.86492187 456.47957031 -320.80015625 455.79507812 -319.703125 455.08984375 C-317.35085619 453.57125493 -315.00200217 452.04811081 -312.65625 450.51953125 C-301.25322165 443.09687033 -289.72701712 435.8789806 -278.17675781 428.68798828 C-275.1573158 426.80687483 -272.14150871 424.92003439 -269.12670898 423.03149414 C-266.57823486 421.43585022 -264.02744264 419.8439408 -261.47607422 418.25292969 C-260.05021768 417.36359802 -258.62479489 416.47357071 -257.19970703 415.58300781 C-241.67577208 405.88898016 -225.98806544 396.47619348 -210.28082275 387.08374023 C-205.14100792 384.00957884 -200.00395525 380.93081212 -194.8671875 377.8515625 C-193.84133545 377.23740479 -192.8154834 376.62324707 -191.75854492 375.99047852 C-185.32268425 372.13193308 -178.92762865 368.21684551 -172.58984375 364.19921875 C-170.4296875 362.9765625 -170.4296875 362.9765625 -168.4296875 362.9765625 C-169.265 361.99429688 -169.265 361.99429688 -170.1171875 360.9921875 C-188.18199833 339.38765022 -194.66021977 317.49641037 -199.96020508 290.17114258 C-204.08637552 269.23560175 -215.21906788 253.71889367 -227.92382812 237.01171875 C-245.54108102 213.72111323 -276.07100281 172.64326488 -272.4296875 141.9765625 C-270.74370345 137.27355437 -268.67245741 134.61650822 -264.4296875 131.9765625 C-241.4994109 123.48386746 -210.2088062 135.15082318 -187.71875 140.93017578 C-185.14378675 141.59056506 -182.56726681 142.24491304 -179.98925781 142.89331055 C-177.5268182 143.51270785 -175.06752777 144.14482499 -172.61230469 144.79223633 C-153.79993685 149.50598383 -137.88249863 145.32511456 -120.4296875 137.9765625 C-119.80594238 137.72003906 -119.18219727 137.46351563 -118.53955078 137.19921875 C-85.33014881 123.51272131 -56.3541869 102.76403571 -42.22070312 68.94824219 C-38.18579374 58.89085694 -35.28976183 48.54135313 -32.51708984 38.0769043 C-24.32791668 7.31190906 -24.32791668 7.31190906 -13.4296875 -0.0234375 C-8.62030774 -1.62656409 -4.67986548 -1.97126167 0 0 Z " fill="#E97349" transform="translate(561.4296875,1443.0234375)"/>
<path d="M0 0 C0 0.66 0 1.32 0 2 C1.22332031 1.96519531 2.44664062 1.93039062 3.70703125 1.89453125 C13.25234596 1.70901822 22.28937655 2.11163125 31.69042969 3.7878418 C40.54881641 5.34639743 49.46067714 6.04461252 58.41845703 6.77832031 C62.61695544 7.13884959 66.80842131 7.5671831 71 8 C71 8.66 71 9.32 71 10 C72.2890625 9.96003906 73.578125 9.92007813 74.90625 9.87890625 C79.97269474 9.87989734 84.5862849 10.7792099 89.5 11.9375 C95.03496531 13.21514697 100.3975006 14.25356378 106.07226562 14.65844727 C108 15 108 15 111 17 C111 17.66 111 18.32 111 19 C112.01320313 19.03738281 113.02640625 19.07476563 114.0703125 19.11328125 C115.42190939 19.17898388 116.77347029 19.24542971 118.125 19.3125 C118.79015625 19.33505859 119.4553125 19.35761719 120.140625 19.38085938 C124.77979064 19.63101046 127.98944113 20.70320417 132 23 C138.77588881 25.95359256 145.96792596 27.50662127 153.1328125 29.21875 C156 30 156 30 158.46875 31.00390625 C161.40294423 32.15856602 164.29040555 32.78907575 167.375 33.4375 C172.24296625 34.52049817 176.52636255 35.81520032 181 38 C181 38.66 181 39.32 181 40 C181.86625 40.12375 182.7325 40.2475 183.625 40.375 C186.91120624 40.98355671 189.83346299 41.94448766 193 43 C195.98874368 43.72142089 198.99049424 44.37134769 202 45 C202 45.66 202 46.32 202 47 C202.9590625 47.1546875 202.9590625 47.1546875 203.9375 47.3125 C211.11093378 48.92286269 217.51068841 51.57836298 224 55 C224 55.66 224 56.32 224 57 C224.99 57 225.98 57 227 57 C227 57.66 227 58.32 227 59 C228.258125 59.2475 229.51625 59.495 230.8125 59.75 C244.875 62.875 244.875 62.875 249 67 C251.32671865 68.01529541 253.6603447 69.01488198 256 70 C256.99 70.66 257.98 71.32 259 72 C259 72.66 259 73.32 259 74 C260.01126953 74.13728516 260.01126953 74.13728516 261.04296875 74.27734375 C264.75097572 75.18352775 267.94828493 76.81283099 271.3125 78.5625 C271.95767578 78.89185547 272.60285156 79.22121094 273.26757812 79.56054688 C274.84785228 80.36824255 276.42432105 81.18337613 278 82 C278 82.66 278 83.32 278 84 C278.9075 84.103125 279.815 84.20625 280.75 84.3125 C284.03071844 85.00649813 285.60889095 85.70085668 288 88 C288 88.66 288 89.32 288 90 C289.670625 90.4640625 289.670625 90.4640625 291.375 90.9375 C295 92 295 92 297 93 C297 93.66 297 94.32 297 95 C298.32 95.33 299.64 95.66 301 96 C301 96.66 301 97.32 301 98 C301.53625 98.103125 302.0725 98.20625 302.625 98.3125 C305.62502044 99.18092697 308.2379535 100.55620296 311 102 C311 102.66 311 103.32 311 104 C311.70640625 104.26941406 312.4128125 104.53882813 313.140625 104.81640625 C316.10862518 106.0449637 318.9133234 107.43099472 321.75 108.9375 C323.19632813 109.69353516 323.19632813 109.69353516 324.671875 110.46484375 C327 112 327 112 328 115 C329.32244854 115.37419081 330.65844407 115.70147602 332 116 C333.91943359 117.22753906 333.91943359 117.22753906 335.8984375 118.765625 C336.98898437 119.60673828 336.98898437 119.60673828 338.1015625 120.46484375 C338.85179687 121.05394531 339.60203125 121.64304687 340.375 122.25 C341.1175 122.82363281 341.86 123.39726563 342.625 123.98828125 C345.91883702 126.54304177 349.17273204 129.12681369 352.34765625 131.828125 C354.92662639 134.1087596 354.92662639 134.1087596 358.0625 135.5 C361.44269952 137.22605933 363.34863361 139.28697393 366 142 C368.27395451 143.82721301 370.58522127 145.59499625 372.9140625 147.3515625 C375 149 375 149 376.65234375 150.65625 C377.96183168 152.11962867 377.96183168 152.11962867 379.9375 152.875 C382.73970963 154.40347798 384.18563237 156.40804624 386 159 C386 159.66 386 160.32 386 161 C386.825 161.185625 387.65 161.37125 388.5 161.5625 C395.1710622 164.30240055 399.60355581 169.4311707 404 175 C405.44842699 176.19092886 406.89794193 177.38072442 408.36328125 178.55078125 C410.2646774 180.23435636 411.85567326 182.06528444 413.5 184 C416.43486301 187.44555503 419.47815217 190.16720935 423 193 C425.84006231 195.69805919 428.43341151 198.49509382 430.9375 201.5 C432.93023993 203.87576008 434.95112817 205.87910577 437.375 207.8125 C438.674375 208.8953125 438.674375 208.8953125 440 210 C440 210.66 440 211.32 440 212 C440.66 212 441.32 212 442 212 C442.433125 212.7425 442.86625 213.485 443.3125 214.25 C445.17089831 217.27850095 447.23543032 218.81744499 450 221 C450.33 221.99 450.66 222.98 451 224 C451.804375 224.639375 452.60875 225.27875 453.4375 225.9375 C455.96546488 227.97220344 456.67447972 229.1595994 458 232 C458.99 232.66 459.98 233.32 461 234 C462.77529344 236.66294015 463.98568358 238.95705074 465 242 C465.66 242 466.32 242 467 242 C468.3671875 243.609375 468.3671875 243.609375 469.875 245.75 C471.60353283 248.14627901 473.21597755 250.21597755 475.3125 252.3125 C477 254 477 254 478 257 C478.99 257.66 479.98 258.32 481 259 C482.60293117 261.73139471 483.98778126 264.5381966 485.40234375 267.37109375 C487.02601636 270.04280932 488.46679807 271.24831781 491 273 C491.144375 273.61875 491.28875 274.2375 491.4375 274.875 C491.87115434 277.25021764 491.87115434 277.25021764 494.25 279.1875 C496.61424616 281.60547902 497.78401894 283.21829534 499.3125 286.125 C502.31890973 291.82385896 506.16548125 296.83907539 510 302 C512.81948615 305.85302213 514.51579307 309.44136442 516 314 C516.66 314.33 517.32 314.66 518 315 C519.01246063 316.69804111 519.96165204 318.43415587 520.875 320.1875 C522.522312 323.29420249 524.14556431 326.21406516 526.125 329.125 C528.11261103 332.17267025 529.49561511 335.21306694 530.91796875 338.55078125 C532.48044264 342.08750012 534.26470861 345.50346024 536.046875 348.93359375 C537 351 537 351 537 353 C537.66 353 538.32 353 539 353 C539.48198463 354.24891614 539.96045677 355.49918808 540.4375 356.75 C540.83775391 357.79414062 540.83775391 357.79414062 541.24609375 358.859375 C541.96146693 360.89059003 542.51365652 362.9035291 543 365 C543.66 365 544.32 365 545 365 C545.67408308 366.26691507 546.33900497 367.53870749 547 368.8125 C547.37125 369.52019531 547.7425 370.22789062 548.125 370.95703125 C549 373 549 373 549 376 C549.66 376 550.32 376 551 376 C553.60626077 382.67646377 556.1416457 389.35689751 558.5 396.125 C561.89679064 406.83918724 561.89679064 406.83918724 568 416 C568.7775717 418.29014729 569.4758296 420.60769955 570.125 422.9375 C570.47820312 424.18402344 570.83140625 425.43054687 571.1953125 426.71484375 C572 430 572 430 572 433 C572.66 433 573.32 433 574 433 C574.19335938 433.74765625 574.38671875 434.4953125 574.5859375 435.265625 C574.84632812 436.25046875 575.10671875 437.2353125 575.375 438.25 C575.63023438 439.22453125 575.88546875 440.1990625 576.1484375 441.203125 C576.88996097 443.94749416 576.88996097 443.94749416 578.1015625 446.109375 C579 448 579 448 579 452 C579.66 452 580.32 452 581 452 C581.38091797 453.80984375 581.38091797 453.80984375 581.76953125 455.65625 C582.11686915 457.27090185 582.4645434 458.88548137 582.8125 460.5 C582.97814453 461.29148437 583.14378906 462.08296875 583.31445312 462.8984375 C584.16943163 466.83456496 585.14335635 470.58188688 586.59375 474.34375 C588.02301442 478.0598375 588.59112292 481.07478001 589 485 C589.66 485 590.32 485 591 485 C591.50642925 488.06147257 592.00399322 491.12432299 592.5 494.1875 C592.64308594 495.05181641 592.78617188 495.91613281 592.93359375 496.80664062 C593.59314262 500.90526577 594.20709266 504.83226024 594 509 C594.66 509 595.32 509 596 509 C596.33 512.63 596.66 516.26 597 520 C597.66 520 598.32 520 599 520 C599.12060791 521.15616821 599.12060791 521.15616821 599.24365234 522.33569336 C599.615428 525.87021388 599.99515417 529.40383803 600.375 532.9375 C600.50132813 534.14986328 600.62765625 535.36222656 600.7578125 536.61132812 C601.38428367 542.39052463 602.12404737 548.00068562 603.48681641 553.65063477 C604.62857085 558.87761051 605.263267 564.20381557 606 569.5 C606.17442627 570.74523438 606.34885254 571.99046875 606.52856445 573.2734375 C607.02533348 576.84813071 607.5145767 580.42375034 608 584 C608.17861572 585.30324219 608.17861572 585.30324219 608.36083984 586.6328125 C608.46219238 587.38304687 608.56354492 588.13328125 608.66796875 588.90625 C608.75071045 589.51791016 608.83345215 590.12957031 608.91870117 590.75976562 C611.31571055 610.73702092 611.1880968 630.84509789 611.18530273 650.93286133 C611.18522172 654.00681473 611.19214066 657.08061829 611.20581055 660.15454102 C611.43767335 713.12465329 611.43767335 713.12465329 608 720 C607.71860214 723.11324301 607.5533221 726.22672589 607.37890625 729.34765625 C607.08840406 732.1478578 606.66853164 734.6241982 606.02734375 737.34375 C604.93362148 742.02214823 604.42786568 746.65853211 604 751.4375 C603.44393074 757.17306754 602.77193981 762.7505299 601.5078125 768.37890625 C600.31723343 774.52412592 599.72476252 780.78554687 599 787 C598.34 787 597.68 787 597 787 C596.34 793.6 595.68 800.2 595 807 C594.34 807 593.68 807 593 807 C592.94392578 808.14275391 592.94392578 808.14275391 592.88671875 809.30859375 C592.51285332 815.18048021 591.83754096 820.31818887 589.75390625 825.82421875 C588.68743878 828.90205492 588.15962722 832.0422367 587.625 835.25 C587.41875 835.8275 587.2125 836.405 587 837 C586.01 837.33 585.02 837.66 584 838 C583.90912109 839.01320313 583.90912109 839.01320313 583.81640625 840.046875 C583.73261719 840.93890625 583.64882812 841.8309375 583.5625 842.75 C583.48128906 843.63171875 583.40007812 844.5134375 583.31640625 845.421875 C583.03761535 847.69350452 582.61209423 849.79851823 582 852 C581.34 852 580.68 852 580 852 C579.97421875 852.56847656 579.9484375 853.13695312 579.921875 853.72265625 C579.86515625 854.49480469 579.8084375 855.26695312 579.75 856.0625 C579.70359375 856.81660156 579.6571875 857.57070312 579.609375 858.34765625 C578.93618086 861.27777688 577.60883925 863.37424267 576.06933594 865.92797852 C573.95722568 870.0205538 572.93702682 874.50734635 571.75 878.9375 C571.3478125 880.3925293 571.3478125 880.3925293 570.9375 881.87695312 C570.28311383 884.24910299 569.63754024 886.62327809 569 889 C568.34 889 567.68 889 567 889 C566.87625 890.093125 566.7525 891.18625 566.625 892.3125 C566 896 566 896 564 899 C563.33386665 901.27538323 563.33386665 901.27538323 562.875 903.6875 C562.70742187 904.49574219 562.53984375 905.30398438 562.3671875 906.13671875 C562.24601562 906.75160156 562.12484375 907.36648438 562 908 C561.34 908 560.68 908 560 908 C559.5978125 909.485 559.5978125 909.485 559.1875 911 C558.023161 915.09612784 556.53288422 919.02843633 555 923 C554.34 923 553.68 923 553 923 C552.88527344 923.72316406 552.77054688 924.44632813 552.65234375 925.19140625 C551.97599054 928.10337007 550.96382499 930.30533763 549.5625 932.9375 C547.68789119 936.56210489 546.13889581 940.06563267 545 944 C544.34 944 543.68 944 543 944 C542.90203125 944.68449219 542.8040625 945.36898437 542.703125 946.07421875 C541.84778928 949.63336572 540.40545516 952.54837429 538.75 955.8125 C538.27530273 956.75150146 538.27530273 956.75150146 537.79101562 957.70947266 C536.17059147 960.87390137 534.48071373 963.92373654 532.5 966.875 C528.42906532 973.05628543 525.86211943 980.20349737 523 987 C522.34 987 521.68 987 521 987 C520.5978125 987.86625 520.5978125 987.86625 520.1875 988.75 C519 991 519 991 517.5625 992.8125 C515.51464658 995.67949478 514.36497405 998.75818663 513 1002 C511.06317599 1005.6210188 508.88702635 1008.11297365 506 1011 C504.76487921 1013.13309192 504.76487921 1013.13309192 504 1015 C503.34 1015 502.68 1015 502 1015 C501.92394531 1015.52980469 501.84789062 1016.05960938 501.76953125 1016.60546875 C500.69949794 1019.93506478 498.71812186 1022.51121072 496.6875 1025.3125 C493.04270298 1030.41113332 493.04270298 1030.41113332 489.875 1035.8125 C487.84382393 1039.26549932 485.48975037 1041.98142901 482.8125 1044.94140625 C479.55570468 1048.64039577 476.21247965 1052.5750407 474 1057 C473.34 1057 472.68 1057 472 1057 C471.5978125 1058.11375 471.5978125 1058.11375 471.1875 1059.25 C470.04723249 1061.89061949 468.90619694 1063.85552844 467 1066 C466.34 1066 465.68 1066 465 1066 C464.75636719 1066.55300781 464.51273438 1067.10601563 464.26171875 1067.67578125 C462.73593943 1070.48642736 460.86723221 1072.73667484 458.8125 1075.1875 C455.33884155 1079.36369611 451.97006253 1083.59027047 448.703125 1087.9296875 C446.61978162 1090.46219207 444.344379 1092.70658576 442 1095 C433.55325917 1103.19324311 433.55325917 1103.19324311 425.625 1111.875 C417.88049794 1120.97818664 408.77522701 1131.07924699 399 1138 C398.34 1138 397.68 1138 397 1138 C396.67 1138.99 396.34 1139.98 396 1141 C394.22265625 1142.82421875 394.22265625 1142.82421875 392.0625 1144.6875 C391.35222656 1145.31011719 390.64195313 1145.93273438 389.91015625 1146.57421875 C388 1148 388 1148 386 1148 C385.67 1148.99 385.34 1149.98 385 1151 C383.02237843 1152.3663055 381.01878957 1153.69529067 379 1155 C377.26195112 1156.52937736 375.55384964 1158.09336296 373.875 1159.6875 C359.71429954 1172.76190015 359.71429954 1172.76190015 353 1175 C353 1175.66 353 1176.32 353 1177 C352.360625 1177.103125 351.72125 1177.20625 351.0625 1177.3125 C350.381875 1177.539375 349.70125 1177.76625 349 1178 C348.67 1178.99 348.34 1179.98 348 1181 C346.34928604 1182.02611949 344.68029994 1183.02308143 343 1184 C342.34 1184.680625 341.68 1185.36125 341 1186.0625 C338.76237441 1188.23019979 336.89093399 1188.91589975 334 1190 C332.66209359 1190.99387334 331.32781878 1191.9926892 330 1193 C329.34 1193 328.68 1193 328 1193 C328 1193.66 328 1194.32 328 1195 C326.35 1195.33 324.7 1195.66 323 1196 C323 1196.66 323 1197.32 323 1198 C320.734375 1199.69140625 320.734375 1199.69140625 317.75 1201.5625 C316.77546875 1202.18253906 315.8009375 1202.80257813 314.796875 1203.44140625 C312.43180391 1204.75937184 310.63809243 1205.54147441 308 1206 C308 1206.66 308 1207.32 308 1208 C301.25 1212 301.25 1212 299 1212 C299 1212.66 299 1213.32 299 1214 C298.15977295 1214.2993042 297.3195459 1214.5986084 296.45385742 1214.90698242 C274.4957025 1222.73780961 252.63991753 1230.57532122 231.33984375 1240.078125 C228.04013389 1241.54792816 224.72265988 1242.95467335 221.375 1244.3125 C216.32098281 1246.40884046 211.35729202 1248.65852633 206.40942383 1250.99365234 C201.35899464 1253.37513508 196.28339454 1255.69758301 191.20043945 1258.00878906 C175.27350016 1265.26036058 159.75461784 1273.10644601 144.24121094 1281.20019531 C135.87320244 1285.5617802 127.4584257 1289.8171488 119 1294 C117.91847656 1294.57105469 116.83695313 1295.14210938 115.72265625 1295.73046875 C113 1297 113 1297 110.625 1296.6875 C110.08875 1296.460625 109.5525 1296.23375 109 1296 C109 1295.34 109 1294.68 109 1294 C108.01 1293.67 107.02 1293.34 106 1293 C106 1292.34 106 1291.68 106 1291 C105.11634766 1290.59201172 105.11634766 1290.59201172 104.21484375 1290.17578125 C98.6995633 1287.24791632 94.37184455 1282.37184455 90 1278 C83.23485044 1271.70311216 76.18594815 1265.80713177 69 1260 C67.14501773 1258.48016158 65.29084665 1256.95933253 63.4375 1255.4375 C56.48272527 1249.75349856 49.52233013 1244.10917855 42.3125 1238.75 C37.63642588 1235.27291924 33.08816788 1231.66991364 28.5625 1228 C22.96704488 1223.47778199 17.25336125 1219.30441324 11.296875 1215.265625 C7.71545883 1212.82785433 4.23274652 1210.2634663 0.75 1207.6875 C-5.35001068 1203.18316912 -11.51526899 1198.78036152 -17.72021484 1194.421875 C-21.70140373 1191.62511939 -25.66507996 1188.80689135 -29.61035156 1185.9597168 C-34.96243809 1182.10114971 -40.39337436 1178.44626206 -45.9921875 1174.953125 C-49.71937674 1172.53287224 -53.3227726 1169.95902033 -56.9375 1167.375 C-66.42662096 1160.60760638 -76.188292 1154.28686971 -86 1148 C-86.99241699 1147.36384766 -86.99241699 1147.36384766 -88.00488281 1146.71484375 C-88.61428711 1146.32425781 -89.22369141 1145.93367188 -89.8515625 1145.53125 C-99.26124667 1139.49956819 -108.57750201 1133.33761556 -117.83984375 1127.08203125 C-127.13047056 1120.83051909 -136.60088116 1114.86373069 -146.05810547 1108.86865234 C-148.9708734 1107.01850083 -151.87878283 1105.16095884 -154.78515625 1103.30078125 C-164.53181686 1097.06656645 -174.30887748 1090.91515931 -184.26855469 1085.02685547 C-186.60372242 1083.64195481 -188.92868711 1082.24038664 -191.25390625 1080.83886719 C-193.76535962 1079.32684208 -196.28159058 1077.82285489 -198.79785156 1076.31884766 C-200.38185407 1075.37020226 -201.96435879 1074.41905429 -203.54589844 1073.46630859 C-213.78011615 1067.30489181 -223.98985474 1061.29737428 -234.74609375 1056.09375 C-239.04817885 1054.0046117 -243.26644314 1051.76533541 -247.49291992 1049.52807617 C-256.81030433 1044.59970405 -266.12902713 1039.99753963 -275.85546875 1035.93701172 C-278.61279428 1034.73225132 -281.31999589 1033.42936653 -284.0390625 1032.140625 C-291.72077965 1028.57375906 -299.63932265 1025.72539773 -307.64501953 1022.97363281 C-316.42340038 1019.93941076 -322.43151365 1016.52067829 -329 1010 C-337.22734862 1003.24504207 -346.4924804 998.49752987 -356.05078125 993.95410156 C-357.90779839 993.04513075 -359.72002824 992.08251832 -361.53125 991.0859375 C-385.10805958 978.37825344 -413.61520538 979.02306295 -439 986 C-439.97195313 986.26264648 -440.94390625 986.52529297 -441.9453125 986.79589844 C-463.92691227 992.80778334 -484.55926228 1000.95559796 -505.34765625 1010.24609375 C-506.40855469 1010.71660156 -507.46945312 1011.18710938 -508.5625 1011.671875 C-509.51253906 1012.0956543 -510.46257812 1012.51943359 -511.44140625 1012.95605469 C-513.63216737 1013.84991867 -515.69170151 1014.50711038 -518 1015 C-518.103125 1014.360625 -518.20625 1013.72125 -518.3125 1013.0625 C-518.539375 1012.381875 -518.76625 1011.70125 -519 1011 C-519.99 1010.67 -520.98 1010.34 -522 1010 C-523.0406551 1007.20697742 -523.92091015 1004.48021559 -524.75 1001.625 C-530.77603526 982.45825945 -544.52066909 970.16308687 -558.88671875 956.859375 C-576.41061102 940.53114721 -585.30512395 922.47335291 -593.71240234 900.36621094 C-603.31255503 875.21881622 -603.31255503 875.21881622 -615 851 C-615.65256355 849.71366831 -616.30223471 848.42586578 -616.94921875 847.13671875 C-623.91997137 833.40291139 -632.98229257 817.86183399 -648 812 C-652.27453929 811.09592305 -655.88331984 811.68011711 -659.75 813.6875 C-665.15840542 817.53578847 -667.8682868 822.2958081 -671 828 C-671.66 827.67 -672.32 827.34 -673 827 C-673.49756981 824.72452829 -673.89445265 822.4269412 -674.25 820.125 C-675.3302164 813.64148653 -676.98052379 807.5433782 -679.0625 801.3125 C-681.23689345 794.78405478 -682.81675295 788.53453882 -683.578125 781.6640625 C-683.88666132 779.00375671 -683.88666132 779.00375671 -684.984375 776.71875 C-686.43450413 772.83686588 -686.6457108 768.9837874 -687 764.875 C-687.58257159 758.71571961 -688.34096037 752.71015005 -689.5625 746.640625 C-690.2807831 742.30527342 -690.50120289 737.93831713 -690.75390625 733.5546875 C-690.72013415 731.06785028 -690.72013415 731.06785028 -692 730 C-697.91351834 690.3712139 -696.51444102 647.03204333 -694.125 607.125 C-694.00741333 605.1605896 -694.00741333 605.1605896 -693.88745117 603.15649414 C-693.15983279 592.37337112 -692.19852432 581.46955372 -690 570.875 C-688.70879945 564.27777218 -688.28607616 557.57366801 -687.78515625 550.87841797 C-687.36484661 545.65127764 -686.51541377 541.04155165 -685 536 C-684.54142403 533.28154011 -684.23341167 530.55289941 -683.9375 527.8125 C-683.00059562 519.42681861 -683.00059562 519.42681861 -682 516 C-681.34 516 -680.68 516 -680 516 C-679.96261719 514.9378125 -679.92523437 513.875625 -679.88671875 512.78125 C-679.55882349 505.22715086 -679.06661283 498.99187725 -676 492 C-675.22794791 489.02006725 -674.59421395 486.02000503 -674 483 C-673.34 483 -672.68 483 -672 483 C-671.01 477.06 -670.02 471.12 -669 465 C-668.34 465 -667.68 465 -667 465 C-666.88269531 463.99195313 -666.76539063 462.98390625 -666.64453125 461.9453125 C-666.0060582 458.03708353 -664.99015166 454.60953695 -663.6875 450.875 C-663.23428322 449.56037554 -662.78248615 448.24526087 -662.33203125 446.9296875 C-661.99486084 445.94693848 -661.99486084 445.94693848 -661.65087891 444.94433594 C-660.32876602 440.99485843 -659.16780067 436.99500406 -657.9921875 433 C-657 430 -657 430 -655.55078125 426.65234375 C-653.86369216 422.67897271 -652.56203261 418.68860014 -651.3125 414.5625 C-651.08755859 413.83095703 -650.86261719 413.09941406 -650.63085938 412.34570312 C-650.08380134 410.56485464 -649.54140628 408.78257483 -649 407 C-648.34 407 -647.68 407 -647 407 C-647 405.68 -647 404.36 -647 403 C-646.34 403 -645.68 403 -645 403 C-644.87882813 402.26394531 -644.75765625 401.52789063 -644.6328125 400.76953125 C-644.46523438 399.79371094 -644.29765625 398.81789063 -644.125 397.8125 C-643.96257813 396.84957031 -643.80015625 395.88664062 -643.6328125 394.89453125 C-643.01960483 392.08967396 -642.14333657 389.62775253 -641 387 C-640.34 387 -639.68 387 -639 387 C-638.896875 386.29875 -638.79375 385.5975 -638.6875 384.875 C-637.90640997 381.60862353 -636.57941257 378.9528148 -635 376 C-634.34 376 -633.68 376 -633 376 C-632.67 373.69 -632.34 371.38 -632 369 C-631.34 369 -630.68 369 -630 369 C-629.82597656 367.89205078 -629.82597656 367.89205078 -629.6484375 366.76171875 C-628.99734705 363.988701 -628.11388733 362.21727863 -626.625 359.8125 C-624.27643264 355.76999469 -622.91145443 351.88188384 -621.7734375 347.359375 C-620.86519845 344.5887872 -619.57125411 342.45646769 -618 340 C-616.66606133 337.87537994 -615.33276508 335.75035644 -614 333.625 C-613.319375 332.54476563 -612.63875 331.46453125 -611.9375 330.3515625 C-609.97289412 326.95311119 -608.47101142 323.63155943 -607 320 C-606.34 320 -605.68 320 -605 320 C-604.773125 319.360625 -604.54625 318.72125 -604.3125 318.0625 C-602.51301696 313.86370624 -600.26233091 309.96414402 -598 306 C-597.59910156 305.29488281 -597.19820312 304.58976562 -596.78515625 303.86328125 C-595.86008609 302.24029338 -594.93055255 300.61985073 -594 299 C-593.34 299 -592.68 299 -592 299 C-591.731875 298.0925 -591.46375 297.185 -591.1875 296.25 C-590.09868368 293.27008166 -589.13608899 291.31409641 -587 289 C-586.34 289 -585.68 289 -585 289 C-584.7628125 288.14148438 -584.525625 287.28296875 -584.28125 286.3984375 C-582.84307607 282.58376885 -580.96398858 279.86498498 -578.5 276.625 C-577.89478516 275.80708984 -577.89478516 275.80708984 -577.27734375 274.97265625 C-576.23912942 273.60550273 -575.12478686 272.29686247 -574 271 C-573.34 271 -572.68 271 -572 271 C-571.93683594 270.29746094 -571.87367188 269.59492187 -571.80859375 268.87109375 C-570.75722735 265.13798117 -568.61629314 262.86330925 -566.0625 260.0625 C-561.96108593 255.41983374 -558.25527837 250.66919878 -554.75 245.5625 C-551.72660248 241.18229815 -548.73517184 237.58156468 -544.50390625 234.33203125 C-542.24008244 232.32693017 -540.96399437 229.89638663 -539.45703125 227.30078125 C-536.44841797 222.5499147 -532.83997249 218.10401775 -529 214 C-528.34 214 -527.68 214 -527 214 C-526.75378906 213.42507813 -526.50757813 212.85015625 -526.25390625 212.2578125 C-524.80206947 209.64360173 -523.09712451 207.93663792 -520.9375 205.875 C-518.08428067 203.22095 -518.08428067 203.22095 -516 200 C-515.34 200 -514.68 200 -514 200 C-513.67 199.01 -513.34 198.02 -513 197 C-511.51272037 195.70671337 -510.02093855 194.41694858 -508.48046875 193.1875 C-506.86196002 191.88927664 -505.43517163 190.4975704 -504 189 C-502.33333333 187.33333333 -500.66666667 185.66666667 -499 184 C-498.278125 183.236875 -497.55625 182.47375 -496.8125 181.6875 C-495 180 -495 180 -493 180 C-492.67 179.01 -492.34 178.02 -492 177 C-490.36395804 175.62926214 -488.69321939 174.29944744 -487 173 C-486.401875 172.401875 -485.80375 171.80375 -485.1875 171.1875 C-483.28898107 169.28898107 -481.3485447 167.55883083 -479.3125 165.8125 C-475.35565564 162.40193639 -471.75511811 158.71978725 -468.17578125 154.91796875 C-465.85815438 152.87496194 -463.87365707 152.05871576 -461 151 C-459.28769752 149.38025441 -457.62836738 147.7041054 -456 146 C-450.5844874 141.01296752 -444.86014839 136.45018788 -439 132 C-438.3090625 131.45214844 -437.618125 130.90429688 -436.90625 130.33984375 C-434.63451671 128.74311318 -432.72594224 128.37860309 -430 128 C-430 127.34 -430 126.68 -430 126 C-427.19471004 123.43187223 -424.06281986 121.25060541 -421 119 C-420.16082031 118.38125 -419.32164062 117.7625 -418.45703125 117.125 C-414.60883064 114.35668204 -410.83863266 111.80974888 -406.5625 109.75 C-403.44958727 108.22084989 -402.26545079 107.3716438 -400 105 C-394.31632648 100.19578635 -386.69943147 94 -379 94 C-378.79375 93.401875 -378.5875 92.80375 -378.375 92.1875 C-376.1196363 88.59942138 -372.56003554 87.64618456 -368.74609375 86.06640625 C-367.96363281 85.73511719 -367.18117188 85.40382813 -366.375 85.0625 C-365.64023437 84.76472656 -364.90546875 84.46695313 -364.1484375 84.16015625 C-361.88129244 83.0758457 -361.88129244 83.0758457 -360.09765625 81.03125 C-357.58875752 78.60177637 -355.31383501 77.67981338 -352.0625 76.4375 C-348.95359983 75.23874583 -346.15126906 74.0928691 -343.30859375 72.34765625 C-341 71 -341 71 -338 71 C-338 70.34 -338 69.68 -338 69 C-331.54149944 65.52234585 -324.9805256 63.21515346 -318 61 C-315.99907344 60.33611949 -313.9988106 59.67022432 -312 59 C-312 58.34 -312 57.68 -312 57 C-309.00404618 55.65698622 -306.00383936 54.32522325 -303 53 C-301.21335937 52.20722656 -301.21335937 52.20722656 -299.390625 51.3984375 C-298.13561827 50.84849804 -296.88041014 50.29901793 -295.625 49.75 C-293.84996094 48.96882812 -293.84996094 48.96882812 -292.0390625 48.171875 C-289 47 -289 47 -286 47 C-286 46.34 -286 45.68 -286 45 C-283.89679937 44.49595192 -281.79240209 43.99689492 -279.6875 43.5 C-278.51574219 43.2215625 -277.34398437 42.943125 -276.13671875 42.65625 C-273 42 -273 42 -270 42 C-270 41.34 -270 40.68 -270 40 C-269.01 40 -268.02 40 -267 40 C-267 39.34 -267 38.68 -267 38 C-266.23816406 37.81824219 -265.47632813 37.63648438 -264.69140625 37.44921875 C-256.27754523 35.40090052 -248.31333087 32.88606403 -240.22607422 29.80102539 C-239.18604248 29.40451782 -239.18604248 29.40451782 -238.125 29 C-237.4355127 28.73630615 -236.74602539 28.4726123 -236.03564453 28.20092773 C-231.10716184 26.34328678 -226.17053146 24.84985333 -221.0390625 23.640625 C-218.80215564 23.11059186 -218.80215564 23.11059186 -217 21 C-214.63490639 20.69940057 -212.25558119 20.50484988 -209.875 20.375 C-208.59367187 20.30023437 -207.31234375 20.22546875 -205.9921875 20.1484375 C-205.00476563 20.09945312 -204.01734375 20.05046875 -203 20 C-203 19.34 -203 18.68 -203 18 C-201.99582031 17.82984375 -200.99164062 17.6596875 -199.95703125 17.484375 C-193.32234776 16.32118307 -186.90130104 15.08737091 -180.5 12.9375 C-175.06984263 11.16767093 -169.74878052 10.32496744 -164.09741211 9.72070312 C-158.08006678 9.06681682 -152.26215934 7.89864452 -146.3359375 6.65625 C-142.91060122 5.98241335 -139.54329937 5.55757079 -136.0703125 5.25 C-133.83938577 4.98060507 -131.74494121 4.47016362 -129.5625 3.9375 C-121.85559752 2.28339533 -113.83679662 2.84633732 -106 3 C-106 2.34 -106 1.68 -106 1 C-70.72120832 -1.41464015 -35.31852273 -2.10632297 0 0 Z " fill="#E5CDC1" transform="translate(1207,631)"/>
<path d="M0 0 C9.49523691 2.92268706 17.19394717 8.09415603 24.5625 14.625 C30.03273589 19.41235703 35.13516952 22.46106387 42 25 C43.57466101 25.5951854 45.14883533 26.19165923 46.72265625 26.7890625 C49.4192307 27.81136395 52.11612038 28.83267839 54.81518555 29.84838867 C68.62940433 35.07892039 81.91123105 41.31263257 95.06298828 48.01757812 C96.95215139 48.97573194 98.84742512 49.92021656 100.74609375 50.859375 C121.98729923 61.36907548 142.65793666 72.54417291 162.80078125 85.03125 C165.52848657 86.70983789 168.2704999 88.36063568 171.02319336 89.99780273 C194.14023826 103.75321722 216.69473221 118.39503265 239.03759766 133.36523438 C245.4077063 137.63217073 251.78413771 141.87881302 258.25 146 C274.23742225 156.20428245 289.98876814 166.82829352 305.5703125 177.640625 C308.14029626 179.42013547 310.73495945 181.15871498 313.33984375 182.88671875 C318.08767333 186.04358432 322.76948107 189.28907208 327.4375 192.5625 C328.73240356 193.46995972 328.73240356 193.46995972 330.0534668 194.39575195 C338.76309375 200.51372993 347.39570737 206.7350495 356 213 C357.00353516 213.72896484 357.00353516 213.72896484 358.02734375 214.47265625 C366.25063682 220.44879201 374.37506641 226.53562844 382.40722656 232.76611328 C384.55758187 234.43194647 386.71383373 236.09004556 388.87060547 237.74755859 C389.95605018 238.58189053 391.04101221 239.4168508 392.12548828 240.25244141 C394.82633194 242.3330733 397.53235458 244.40619468 400.25 246.46484375 C406.96481846 251.5649995 413.46502868 256.85738522 419.87109375 262.33984375 C422.77051583 264.81779148 425.72181411 267.22659018 428.6875 269.625 C433.23518565 273.32041074 437.59525498 277.18426879 441.90625 281.15234375 C444.06333263 283.13945339 444.06333263 283.13945339 447 285 C447 285.66 447 286.32 447 287 C447.88171875 287.40798828 447.88171875 287.40798828 448.78125 287.82421875 C454.16792541 290.67877737 458.41676516 295.12680062 462 300 C460.51807251 304.03546092 458.48477821 305.10140351 454.6796875 306.91796875 C453.05232666 307.70941284 453.05232666 307.70941284 451.39208984 308.5168457 C449.65113037 309.34381958 449.65113037 309.34381958 447.875 310.1875 C445.48806405 311.34844398 443.10264067 312.51250309 440.71875 313.6796875 C439.55988281 314.24655273 438.40101563 314.81341797 437.20703125 315.39746094 C433.18426667 317.40761827 429.26642307 319.56081166 425.375 321.8125 C420.57221996 324.57935906 415.72968133 327.18618331 410.75 329.625 C403.15983545 333.35146734 395.70002159 337.3152083 388.25 341.3125 C387.64341553 341.63785736 387.03683105 341.96321472 386.41186523 342.2984314 C378.66200537 346.45899505 370.94340348 350.67333852 363.25 354.9375 C355.56390906 359.19329412 347.78393299 363.20324594 339.89599609 367.0703125 C329.69078268 372.07436255 319.57739478 377.24333796 309.5 382.5 C296.55093697 389.25058677 283.56438604 395.84051912 270.3293457 402.01220703 C265.73964793 404.15902633 261.20403229 406.39141244 256.6875 408.6875 C246.76979649 413.71224799 236.64936453 418.313858 226.5546875 422.96875 C222.98672535 424.61411599 219.42241236 426.26318794 215.8828125 427.96875 C200.72219515 435.24584633 185.01170878 441.60469935 169.2890625 447.5546875 C165.25884543 449.08836139 161.32458492 450.72612386 157.4140625 452.54296875 C151.84128246 455.12392922 146.15998439 457.2583844 140.375 459.3125 C138.76625 459.88726074 138.76625 459.88726074 137.125 460.47363281 C125.50252457 464.58823294 113.77444471 468.34709124 102 472 C101.23316895 472.24202148 100.46633789 472.48404297 99.67626953 472.73339844 C80.60569208 478.74453625 60.83420395 483.39156124 41 486 C40.32251709 486.0928125 39.64503418 486.185625 38.94702148 486.28125 C17.93823604 488.78299729 -7.17260227 490.04654482 -27 482 C-27.98484375 481.61585938 -28.9696875 481.23171875 -29.984375 480.8359375 C-44.97055163 474.160277 -54.89578436 461.8617514 -61 447 C-68.61391336 426.0972068 -69.19418058 401.70032559 -65 380 C-64.77322754 378.51012199 -64.55375567 377.01912253 -64.33984375 375.52734375 C-62.98829691 366.16372907 -61.23449309 357.11855863 -58.58007812 348.02001953 C-57.96039296 345.8620755 -57.37696944 343.69625241 -56.796875 341.52734375 C-53.76346391 330.35203258 -50.1919063 319.3870233 -46.4375 308.4375 C-46.09028397 307.42008224 -46.09028397 307.42008224 -45.73605347 306.3821106 C-43.1415481 298.80026558 -40.37719313 291.33671638 -37.23510742 283.96069336 C-34.97997278 278.55487841 -32.98309726 273.05018985 -30.9375 267.5625 C-27.05648329 257.20295305 -22.96638368 246.9513232 -18.6875 236.75 C-15.17839248 228.37905013 -11.80241757 220.01980503 -8.87817383 211.42651367 C-6.5835459 204.68447646 -3.80910112 198.17059954 -0.9765625 191.640625 C1.45799177 185.83664762 3.27517815 179.90230357 5.00610352 173.85913086 C6.31988308 169.27752936 7.71266389 164.73268322 9.18457031 160.19946289 C22.73047158 118.38022619 36.6074965 62.88077431 15.625 21.2734375 C12.5375949 15.8536992 8.79812081 11.02967688 4.83203125 6.2265625 C3.15802607 4.19205727 1.56343621 2.12007759 0 0 Z " fill="#AA3927" transform="translate(855,1627)"/>
<path d="M0 0 C11.25969745 2.75909352 22.45674538 5.70440559 33.625 8.8125 C34.41058289 9.03065369 35.19616577 9.24880737 36.0055542 9.47357178 C47.84399736 12.76710852 59.57537135 16.29748176 71.25537109 20.1171875 C76.63080134 21.84619976 82.03692953 23.47659913 87.4375 25.125 C110.98665205 32.34317035 110.98665205 32.34317035 119.3515625 35.77734375 C125.99608958 38.45835928 132.78233027 40.72718405 139.56488037 43.02853394 C142.71886436 44.09887522 145.87075003 45.17533183 149.0227356 46.25154114 C150.58178908 46.7838572 152.14093114 47.31591394 153.70016479 47.84770203 C159.09931144 49.68962847 164.49237185 51.5477698 169.875 53.4375 C170.59228271 53.68902832 171.30956543 53.94055664 172.04858398 54.19970703 C176.88389119 55.89839269 181.71586818 57.60647108 186.54772949 59.31492615 C189.84586176 60.48045853 193.14473273 61.64389233 196.44366455 62.80715942 C198.08053682 63.38498627 199.71706415 63.96379137 201.35321045 64.54367065 C209.9658893 67.5961181 218.56899701 70.57187373 227.33349609 73.16381836 C229.848187 73.95239338 232.25595742 74.86167238 234.6875 75.875 C244.85442128 80.07008888 255.42958949 83.30420747 266 86.3125 C274.60934795 88.76758613 283.03723552 91.72091424 291.4765625 94.70239258 C297.97190483 96.98929436 304.49533001 99.11001269 311.08496094 101.10913086 C314.58038531 102.17737236 318.03902601 103.32517397 321.5 104.5 C327.12249314 106.39321469 332.76982932 108.18253362 338.4453125 109.91015625 C342.67942571 111.20830744 346.90261041 112.53929821 351.125 113.875 C351.93235596 114.13015381 352.73971191 114.38530762 353.5715332 114.64819336 C357.62831308 115.9309902 361.68397127 117.21723115 365.73828125 118.5078125 C367.30459358 119.00550401 368.87099987 119.5028999 370.4375 120 C371.21673828 120.24733887 371.99597656 120.49467773 372.79882812 120.74951172 C377.71331132 122.30118811 382.64292384 123.79162381 387.58569336 125.25048828 C396.03775288 127.74523136 404.35031952 130.45304082 412.6171875 133.5078125 C416.14317609 134.76100744 419.71069452 135.77395859 423.31640625 136.7734375 C431.4761938 139.07271806 439.46001024 141.82255266 447.46743774 144.60012817 C459.10707174 148.63632371 470.75746649 152.63399108 482.484375 156.41015625 C483.31919907 156.67899628 484.15402313 156.9478363 485.0141449 157.224823 C488.9630604 158.49359001 492.91465196 159.75339785 496.86938477 161.00390625 C504.09650426 163.30313892 511.16581212 165.7756456 518.13647461 168.7824707 C521.09986822 170.04246251 524.08816056 171.19716912 527.1015625 172.33203125 C559.32832185 184.53670145 590.48269785 199.10864872 618.7109375 219.01953125 C621.37818782 220.89800194 624.06446058 222.69126821 626.8515625 224.38671875 C627.95242188 225.06347656 629.05328125 225.74023438 630.1875 226.4375 C631.12980469 226.99308594 632.07210937 227.54867187 633.04296875 228.12109375 C635 230 635 230 635.30078125 233.22265625 C635.20152344 234.13917969 635.10226562 235.05570313 635 236 C626.06547179 238.68786647 617.08543886 240.99693426 607.98950195 243.07299805 C603.15481454 244.19164872 598.38614848 245.44503809 593.62109375 246.83203125 C585.24581997 249.25690052 576.79607534 251.36209435 568.34078979 253.48757935 C550.72398145 257.92569377 533.2442826 262.65969318 515.83691406 267.85986328 C511.73825929 269.0817279 507.63116987 270.27392091 503.5234375 271.46484375 C487.76564221 276.04130453 472.09148905 280.80028768 456.4921875 285.89453125 C451.82129292 287.41914919 447.13766203 288.89851411 442.4453125 290.35546875 C432.9338169 293.31220017 423.46814313 296.40781332 414 299.5 C410.58370385 300.61572304 407.16710228 301.73049819 403.75 302.84375 C402.9231218 303.11326477 402.09624359 303.38277954 401.24430847 303.66046143 C395.94239308 305.38342729 390.62698779 307.0569857 385.30078125 308.703125 C379.86067789 310.38817859 374.50210169 312.20360605 369.1875 314.25 C361.49652469 317.14408075 353.7395901 319.79654574 345.9375 322.375 C336.9785184 325.33617388 328.03816153 328.3409471 319.125 331.4375 C317.53993652 331.98809082 317.53993652 331.98809082 315.92285156 332.54980469 C313.74778427 333.30586516 311.5728182 334.06221691 309.39794922 334.81884766 C303.33026007 336.9280214 297.25939563 339.02797032 291.1875 341.125 C289.36569214 341.75450562 289.36569214 341.75450562 287.50708008 342.39672852 C279.31630332 345.22008333 271.10986244 347.99179881 262.86987305 350.66845703 C259.01694829 351.93316062 255.24678812 353.28749544 251.5 354.83984375 C244.04063841 357.86825091 236.34819923 360.22794065 228.6875 362.6875 C227.03773821 363.21949493 225.38799891 363.75155963 223.73828125 364.28369141 C191.23944741 374.74838963 158.87514159 385.04060869 125.25 391.25 C124.36965088 391.41322754 123.48930176 391.57645508 122.58227539 391.74462891 C102.03889247 395.41441613 74.71863713 398.76610846 56.4375 386.6875 C54.93277419 385.48975839 53.45104202 384.26224473 52 383 C51.36835937 382.49984375 50.73671875 381.9996875 50.0859375 381.484375 C44.12114943 376.28160831 41.1943286 369.08445155 38 362 C37.48050781 360.86175781 36.96101563 359.72351562 36.42578125 358.55078125 C34.92596557 354.81562384 33.84997365 351.09649204 32.9375 347.1875 C32.77701172 346.55908203 32.61652344 345.93066406 32.45117188 345.28320312 C28.9655182 330.57066492 28.65723287 315.4133816 28.75 300.375 C28.75243713 299.5049231 28.75487427 298.63484619 28.75738525 297.73840332 C28.80035252 284.608449 29.28324076 271.61264228 30.72216797 258.55273438 C30.99767979 256.02131821 31.24029814 253.48883769 31.47265625 250.953125 C32.90200936 235.54215468 34.86941682 220.19081853 36.9765625 204.859375 C38.9542994 190.42236987 40.6982731 176.00116839 42.04882812 161.49365234 C42.16033203 160.30723145 42.27183594 159.12081055 42.38671875 157.8984375 C42.52920044 156.33101807 42.52920044 156.33101807 42.67456055 154.73193359 C43 152 43 152 43.50488281 150.04272461 C52.13916304 114.41993235 48.95988124 62.47121228 30.17871094 30.84814453 C26.57519772 25.1980627 22.37944595 20.05981237 18 15 C17.38253906 14.28070312 16.76507812 13.56140625 16.12890625 12.8203125 C12.0611606 8.43065892 7.27307678 5.45194111 2.16015625 2.3828125 C1.44730469 1.92648437 0.73445313 1.47015625 0 1 C0 0.67 0 0.34 0 0 Z " fill="#AA3927" transform="translate(1665,1842)"/>
<path d="M0 0 C25.9635907 14.63990628 37.94564854 49.71037403 48.0390625 75.8984375 C48.3408139 76.68056107 48.64256531 77.46268463 48.95346069 78.26850891 C50.44896063 82.15250353 51.93225371 86.04057284 53.39697266 89.9362793 C60.64902845 109.05808602 69.24434709 126.20099475 83.5703125 140.9765625 C84.66279297 142.11158203 84.66279297 142.11158203 85.77734375 143.26953125 C88.90791216 146.46184657 92.1216669 149.49451176 95.5078125 152.4140625 C110.12994791 165.12275441 120.42720487 178.53892322 123.5703125 197.9765625 C124.8903125 198.3065625 126.2103125 198.6365625 127.5703125 198.9765625 C127.51171875 201.23828125 127.51171875 201.23828125 126.5703125 203.9765625 C124.19086665 205.51079979 122.06780376 206.64837802 119.5078125 207.7890625 C118.03753283 208.48259064 116.56748703 209.17661475 115.09765625 209.87109375 C114.34339355 210.21994629 113.58913086 210.56879883 112.81201172 210.92822266 C109.36279568 212.5412627 105.96893073 214.2601696 102.5703125 215.9765625 C101.23727274 216.64381599 99.9039382 217.31048089 98.5703125 217.9765625 C97.9103125 218.3065625 97.2503125 218.6365625 96.5703125 218.9765625 C90.5703125 221.9765625 90.5703125 221.9765625 88.57397461 222.97460938 C87.22830424 223.64752654 85.88276572 224.32070745 84.53735352 224.99414062 C81.39372748 226.56727975 78.2481782 228.13599905 75.09765625 229.6953125 C65.60155369 234.40071858 56.17781999 239.2461537 46.7578125 244.1015625 C46.09022919 244.44517822 45.42264587 244.78879395 44.73483276 245.14282227 C36.62322028 249.31978381 28.5648468 253.5786254 20.5703125 257.9765625 C13.68589902 261.70945897 6.78986972 265.40371173 -0.2421875 268.8515625 C-5.77593912 271.59292035 -11.14740627 274.5791631 -16.53051758 277.60107422 C-24.10602012 281.8346935 -31.76587249 285.90610049 -39.4296875 289.9765625 C-54.22463203 297.83970257 -68.88430419 305.91090576 -83.4140625 314.25390625 C-85.84548245 315.64283915 -88.28642762 317.00651844 -90.7421875 318.3515625 C-95.14994943 320.78201067 -99.47282803 323.35180571 -103.8046875 325.9140625 C-109.46552511 329.26239818 -115.16180005 332.50541931 -120.95703125 335.6171875 C-123.4890963 337.00922326 -125.95997638 338.476957 -128.4296875 339.9765625 C-131.74029211 341.98675748 -135.0799454 343.89434804 -138.4921875 345.7265625 C-144.96425548 349.21722005 -151.28116239 352.96426373 -157.609375 356.70703125 C-158.60275879 357.28783447 -158.60275879 357.28783447 -159.61621094 357.88037109 C-161.17943733 358.82529388 -162.68987627 359.85655267 -164.1875 360.90234375 C-166.4296875 361.9765625 -166.4296875 361.9765625 -168.50390625 361.41015625 C-190.00875059 345.40147903 -195.21697133 314.62595231 -199.96020508 290.17114258 C-204.08637552 269.23560175 -215.21906788 253.71889367 -227.92382812 237.01171875 C-245.54108102 213.72111323 -276.07100281 172.64326488 -272.4296875 141.9765625 C-270.74370345 137.27355437 -268.67245741 134.61650822 -264.4296875 131.9765625 C-241.4994109 123.48386746 -210.2088062 135.15082318 -187.71875 140.93017578 C-185.14378675 141.59056506 -182.56726681 142.24491304 -179.98925781 142.89331055 C-177.5268182 143.51270785 -175.06752777 144.14482499 -172.61230469 144.79223633 C-153.79993685 149.50598383 -137.88249863 145.32511456 -120.4296875 137.9765625 C-119.49406982 137.59177734 -119.49406982 137.59177734 -118.53955078 137.19921875 C-85.33014881 123.51272131 -56.3541869 102.76403571 -42.22070312 68.94824219 C-38.18579374 58.89085694 -35.28976183 48.54135313 -32.51708984 38.0769043 C-24.32791668 7.31190906 -24.32791668 7.31190906 -13.4296875 -0.0234375 C-8.62030774 -1.62656409 -4.67986548 -1.97126167 0 0 Z " fill="#50291C" transform="translate(561.4296875,1443.0234375)"/>
<path d="M0 0 C4.68856545 3.65936816 7.11155118 6.49203763 7.8984375 12.61328125 C8.0079377 20.1797451 6.97803707 25.39193787 1.69140625 30.9765625 C-1.84050062 34.22137675 -4.89181217 36.37145792 -9.4375 38 C-9.78941406 36.83984375 -10.14132812 35.6796875 -10.50390625 34.484375 C-14.82012572 20.65912356 -20.215394 9.51416617 -30.4375 -1 C-29.4375 -3 -29.4375 -3 -26.4375 -4.125 C-17.13355961 -6.49362026 -8.24475254 -4.79694693 0 0 Z " fill="#FCD8B8" transform="translate(598.4375,1592)"/>
<path d="M0 0 C0.99 0.33 1.98 0.66 3 1 C4.04311209 3.77263989 4.9233129 6.47574486 5.75 9.3125 C9.23906967 20.48304364 14.17871706 29.22490207 22 38 C22 38.66 22 39.32 22 40 C13.72276023 43.48515359 5.7623449 42.6691309 -2.4453125 39.40234375 C-7.52023649 36.61656743 -10.59664705 32.44061383 -13.4375 27.5 C-14.88344264 21.07358828 -14.36708485 16.50930584 -11.203125 10.81640625 C-9.43746033 8.15071122 -7.39750663 6.10512777 -5 4 C-4.13375 3.21625 -3.2675 2.4325 -2.375 1.625 C-1.59125 1.08875 -0.8075 0.5525 0 0 Z " fill="#FBD7B7" transform="translate(563,1592)"/>
<path d="M0 0 C0.13535156 0.63164063 0.27070313 1.26328125 0.41015625 1.9140625 C3.75780613 15.82585301 10.47224724 29.21695028 22 38 C16.43002655 41.71331564 10.54086103 41.61591662 4 41 C-2.65674906 39.31169408 -8.48061603 36.23495309 -13 31 C-15.79108748 26.13810569 -16.92664832 21.55988993 -16 16 C-13.95044025 9.27125668 -9.52575651 5.12637661 -4 1 C-2 0 -2 0 0 0 Z " fill="#FAD6B7" transform="translate(448,1661)"/>
<path d="M0 0 C4.26966741 2.99223846 8.0948798 6.03012121 10 11 C10.80840624 17.05364674 10.54023212 22.76919148 7.48828125 28.140625 C4.57896987 31.77535523 0.81901589 34.38870708 -3 37 C-4.79299083 34.31051375 -6.20560499 31.60866641 -7.61401367 28.70678711 C-12.86450946 17.89515282 -18.81197265 7.65891176 -26 -2 C-17.63725315 -6.46013165 -8.0132008 -4.09616673 0 0 Z " fill="#FBD7B7" transform="translate(476,1662)"/>
<path d="M0 0 C11.62402316 6.33489151 18.05732874 20.39616863 21.9375 32.5625 C22.87341827 35.79618169 23.10054042 38.63485312 23 42 C17.29115188 40.61603682 14.22143402 36.63039797 11 32 C5.42670826 22.52306341 -0.89214102 11.30045298 0 0 Z " fill="#3F2317" transform="translate(566,1590)"/>
<path d="M0 0 C6.04936293 4.27881768 9.28123795 9.67267 13 16 C13.3491748 16.59151855 13.69834961 17.18303711 14.05810547 17.79248047 C23.36506281 33.61140082 23.36506281 33.61140082 23 40 C16.09934249 38.32711333 11.9927579 31.71311136 8.3125 26.0625 C3.55729981 18.08502599 -0.46092396 9.44894109 0 0 Z " fill="#422619" transform="translate(448,1659)"/>
<path d="M0 0 C-1.48886719 0.74443359 -1.48886719 0.74443359 -3.0078125 1.50390625 C-3.6584668 1.8294751 -4.30912109 2.15504395 -4.97949219 2.49047852 C-6.41946873 3.20997522 -7.86023595 3.92789149 -9.30175781 4.64428711 C-12.90075653 6.43548109 -16.48542386 8.24521492 -20.0390625 10.125 C-20.66538574 10.45169678 -21.29170898 10.77839355 -21.93701172 11.11499023 C-23.66518237 12.01817234 -25.38744569 12.93263102 -27.109375 13.84765625 C-30.06748592 15.02690317 -31.12263228 15.22218289 -34 14 C-34 13.34 -34 12.68 -34 12 C-34.99 11.67 -35.98 11.34 -37 11 C-37 10.34 -37 9.68 -37 9 C-34.33454836 8.3487817 -31.66780944 7.70392839 -29 7.0625 C-28.25621094 6.88009766 -27.51242187 6.69769531 -26.74609375 6.50976562 C-21.8385724 5.33622791 -17.01745212 4.54165676 -12 4 C-12 3.34 -12 2.68 -12 2 C-10.75579353 1.4654744 -9.50429064 0.94791389 -8.25 0.4375 C-7.55390625 0.14746094 -6.8578125 -0.14257812 -6.140625 -0.44140625 C-3.69987216 -1.07831803 -2.3596345 -0.80248831 0 0 Z " fill="#EDA987" transform="translate(1350,1913)"/>
<path d="M0 0 C0.33 0 0.66 0 1 0 C1.13277344 0.85464844 1.26554687 1.70929688 1.40234375 2.58984375 C1.57894531 3.69457031 1.75554687 4.79929687 1.9375 5.9375 C2.19853516 7.59072266 2.19853516 7.59072266 2.46484375 9.27734375 C2.71845136 11.90426929 2.71845136 11.90426929 4 13 C5.15769615 19.94617691 5.12010487 26.98053779 5 34 C5.66 34 6.32 34 7 34 C7.33 40.6 7.66 47.2 8 54 C7.67 54 7.34 54 7 54 C6.37233721 49.97957769 5.7478853 45.95866523 5.125 41.9375 C4.94155029 40.75349609 4.75810059 39.56949219 4.5690918 38.34960938 C3.40228415 30.76510046 2.3207418 23.17993259 1.39453125 15.5625 C1.13653743 13.01815808 1.13653743 13.01815808 0 11 C-0.07033769 9.12620395 -0.0843022 7.24998898 -0.0625 5.375 C-0.05347656 4.37210938 -0.04445313 3.36921875 -0.03515625 2.3359375 C-0.02355469 1.56507812 -0.01195312 0.79421875 0 0 Z " fill="#EBB79D" transform="translate(1808,1167)"/>
<path d="M0 0 C0.33 0 0.66 0 1 0 C1.19754894 7.51783462 1.12505246 14.61046436 -0.421875 21.98046875 C-1.16555718 25.86470069 -1.64980874 29.76264444 -2.125 33.6875 C-2.21249512 34.4079248 -2.29999023 35.12834961 -2.39013672 35.87060547 C-2.59590619 37.58010675 -2.79832004 39.29001143 -3 41 C-3.33 41 -3.66 41 -4 41 C-4.16693891 31.24334811 -3.50654156 22.0829939 -1.4765625 12.5390625 C-0.69766918 8.38922102 -0.34001195 4.20541091 0 0 Z " fill="#EBB99F" transform="translate(518,1182)"/>
<path d="M0 0 C0.66 0 1.32 0 2 0 C0.79748763 5.41130566 -0.8760556 10.30787706 -2.9921875 15.42578125 C-4.29024524 18.74136285 -5.28729577 22.10835785 -6.2734375 25.52734375 C-7.40768354 29.38743913 -8.70308625 33.19204047 -10 37 C-11.44853548 33.16509517 -10.50596185 30.62134084 -9.25 26.8125 C-8.87359375 25.65621094 -8.4971875 24.49992187 -8.109375 23.30859375 C-7.74328125 22.21675781 -7.3771875 21.12492187 -7 20 C-6.73703125 19.18660156 -6.4740625 18.37320312 -6.203125 17.53515625 C-4.28347608 11.63756817 -2.14286503 5.8194558 0 0 Z " fill="#EBB89D" transform="translate(552,1052)"/>
<path d="M0 0 C1.33769559 3.88331032 0.9309827 7.66765223 0.625 11.6875 C0.58117188 12.37650391 0.53734375 13.06550781 0.4921875 13.77539062 C0.13162202 18.86837798 0.13162202 18.86837798 -1 20 C-1.44699394 23.63605155 -1.82329668 27.27057646 -2.16210938 30.91796875 C-2.37463694 32.95339535 -2.68050215 34.97860183 -3 37 C-3.99 37.495 -3.99 37.495 -5 38 C-4.69401322 34.54105772 -4.37910772 31.082985 -4.0625 27.625 C-3.97548828 26.64015625 -3.88847656 25.6553125 -3.79882812 24.640625 C-3.71181641 23.69960937 -3.62480469 22.75859375 -3.53515625 21.7890625 C-3.456604 20.91975098 -3.37805176 20.05043945 -3.29711914 19.15478516 C-3 17 -3 17 -2 15 C-1.79504812 12.83661909 -1.63435725 10.66890995 -1.5 8.5 C-1.11111111 2.22222222 -1.11111111 2.22222222 0 0 Z " fill="#EBB9A0" transform="translate(1815,1349)"/>
<path d="M0 0 C0.66 0.33 1.32 0.66 2 1 C1 3.375 1 3.375 -1 6 C-3.66921593 7.04768041 -6.15432483 7.48684546 -9 8 C-9 7.34 -9 6.68 -9 6 C-2.25 2 -2.25 2 0 2 C0 1.34 0 0.68 0 0 Z " fill="#EDAD8D" transform="translate(1515,1837)"/>
</svg>
