<?xml version="1.0" encoding="UTF-8"?>
<svg version="1.1" xmlns="http://www.w3.org/2000/svg" width="2048" height="2048">
<path d="M0 0 C675.84 0 1351.68 0 2048 0 C2048 675.84 2048 1351.68 2048 2048 C1372.16 2048 696.32 2048 0 2048 C0 1372.16 0 696.32 0 0 Z " fill="#E7BE5A" transform="translate(0,0)"/>
<path d="M0 0 C1.40400558 0.12486604 2.81085357 0.2208655 4.21875 0.2890625 C17.21983974 1.08448251 29.84773046 3.06456218 42.625 5.5 C43.44830811 5.65543274 44.27161621 5.81086548 45.11987305 5.9710083 C47.49027138 6.42120435 49.85873129 6.88025761 52.2265625 7.34375 C52.93716827 7.48021942 53.64777405 7.61668884 54.37991333 7.7572937 C58.1164654 8.50575516 61.50036309 9.50273266 65 11 C67.40862838 11.63545611 69.82656638 12.23607601 72.25 12.8125 C80.21804029 14.74997543 88.06035117 17.01995059 95.91162109 19.38085938 C97.87990665 19.96439599 99.85579233 20.52211894 101.83203125 21.078125 C116.09169022 25.09084812 130.03308734 30.08313433 144 35 C145.6102002 35.56509277 145.6102002 35.56509277 147.25292969 36.14160156 C159.32428665 40.38970976 171.32327011 44.82505943 183.27203369 49.40582275 C184.60657365 49.9170684 185.94179433 50.42654155 187.277771 50.934021 C194.73577174 53.77223561 201.93727721 56.84035646 209.03100586 60.49584961 C212.13741798 62.06961863 215.28199487 63.52240122 218.453125 64.9609375 C235.97894771 72.99317132 252.66608873 82.30642641 268 94 C269.2169774 94.9003759 270.43441844 95.80012549 271.65234375 96.69921875 C284.32558561 106.20111412 295.38179001 117.41945633 305 130 C305.65097656 130.83402344 306.30195312 131.66804687 306.97265625 132.52734375 C317.30982927 146.19378522 324.97771117 161.00250785 331 177 C331.31066406 177.82483887 331.62132812 178.64967773 331.94140625 179.49951172 C341.26187532 204.73594915 345.82427185 231.19173804 345.04882812 258.08837891 C345.00718822 259.71858137 345.00707605 261.34975699 345.015625 262.98046875 C344.5811463 278.03515562 338.13426396 293.44883779 331.49609375 306.76953125 C329.70233082 310.64274782 328.66903566 314.47719826 327.66015625 318.609375 C326.85573652 321.52242159 325.6426432 323.95851714 324.21484375 326.609375 C322.91881245 329.15976457 321.79561864 331.76512245 320.67919922 334.39819336 C312.23855944 354.25866212 301.4476418 372.15842956 288 389 C287.27039062 389.92425781 286.54078125 390.84851563 285.7890625 391.80078125 C271.88996279 409.13702295 255.99040183 426.43023383 238.43359375 440.0703125 C235.66849206 442.26286505 233.09312135 444.60690905 230.5 447 C225.17013069 451.8932416 219.64358767 456.47496123 214 461 C212.72763173 462.02966024 211.45551054 463.05962586 210.18359375 464.08984375 C208.85183351 465.16439847 207.51980415 466.23861973 206.1875 467.3125 C205.56520508 467.8163623 204.94291016 468.32022461 204.30175781 468.83935547 C200.64881995 471.77051982 196.93683557 474.46185639 193 477 C194.83067853 493.25642537 210.43433948 508.70516606 220.4375 520.875 C231.07196511 533.83011831 240.85581173 547.33633051 249 562 C249.43022461 562.77150391 249.86044922 563.54300781 250.30371094 564.33789062 C255.76680678 574.22496968 260.73421422 584.25031582 265.0625 594.6875 C265.43246094 595.57123291 265.80242188 596.45496582 266.18359375 597.36547852 C271.10399202 609.60057599 274.37829618 626.32685674 269.5625 639.125 C268.74831307 640.77039519 267.88766842 642.39305555 267 644 C266.3809209 645.22234607 265.76535345 646.44647386 265.15234375 647.671875 C254.60660002 668.44978028 242.62494184 689.56578221 226.41015625 706.44921875 C223.97846451 708.95046171 223.97846451 708.95046171 221.90234375 711.63671875 C220.20581 713.74432228 218.56518294 715.3949564 216.5 717.125 C213.05090448 720.07136758 209.70237946 723.10412837 206.375 726.1875 C194.44326749 737.16416436 182.01399546 747.33107065 169 757 C168.26201172 757.54833496 167.52402344 758.09666992 166.76367188 758.66162109 C156.11042385 766.54048937 145.23156718 773.97129552 134 781 C132.93362305 781.66829834 132.93362305 781.66829834 131.84570312 782.35009766 C126.59858402 785.625422 121.31313409 788.83299374 116 792 C115.18547363 792.4861377 114.37094727 792.97227539 113.53173828 793.47314453 C95.64842347 804.08153931 77.36120396 813.201766 57.875 820.5 C56.78558105 820.90943848 55.69616211 821.31887695 54.57373047 821.74072266 C44.46205861 825.41615447 34.49454809 828.27938341 23.6875 828.3125 C16.88766442 828.51557716 12.69755022 830.01737417 8 835 C7.44699219 835.46148438 6.89398437 835.92296875 6.32421875 836.3984375 C4.04970097 839.1493292 4.60016399 842.00815907 4.71484375 845.43359375 C5.26840968 850.4156871 7.1427207 853.86536563 10.125 857.8125 C13.8843778 860.67289615 17.39254625 861.32745229 22 862 C22.02802268 864.02074643 22.04683426 866.04162 22.0625 868.0625 C22.07410156 869.18785156 22.08570313 870.31320312 22.09765625 871.47265625 C22.07139792 874.99941098 21.7977041 878.47185817 21.50439453 881.98583984 C20.64333601 893.86158563 20.83579385 905.78474587 20.83298302 917.6840961 C20.83169229 920.49104659 20.82710308 923.29798848 20.82266486 926.10493547 C20.80875312 935.14586342 20.80844361 944.18676813 20.81177568 953.22770405 C20.81250048 955.56404187 20.81275138 957.9003793 20.8128624 960.23671722 C20.81617191 1005.84927529 20.92320997 1051.42525497 23 1097 C23.0799118 1098.81552368 23.0799118 1098.81552368 23.16143799 1100.66772461 C24.49271941 1130.88059654 26.51566697 1160.95600569 30 1191 C30.12874512 1192.12696289 30.25749023 1193.25392578 30.39013672 1194.41503906 C35.01773543 1234.21619671 42.9969424 1273.66796384 50.96777344 1312.90820312 C51.8215727 1317.11341097 52.66655209 1321.32033507 53.50914001 1325.52780151 C66.65194395 1391.0958392 83.95612118 1455.72496782 103.30993652 1519.71691895 C104.01435907 1522.04750711 104.71683215 1524.37867609 105.41894531 1526.70996094 C125.19941966 1592.34359999 149.84574893 1655.52395701 186 1714 C186.80520351 1715.3121835 187.60991874 1716.62466679 188.4140625 1717.9375 C189.73094347 1720.08506012 191.05272317 1722.22923678 192.37890625 1724.37109375 C192.91386719 1725.23863281 193.44882813 1726.10617187 194 1727 C194.84884766 1728.34771484 194.84884766 1728.34771484 195.71484375 1729.72265625 C197 1732 197 1732 197 1734 C-87.13 1734 -371.26 1734 -664 1734 C-660.55271799 1678.84348787 -660.55271799 1678.84348787 -658.5 1658.5 C-658.28125803 1656.2692846 -658.06333983 1654.03848828 -657.84619141 1651.80761719 C-657.42459943 1647.48273211 -656.99940713 1643.15822795 -656.57128906 1638.83398438 C-656.06518681 1633.6984797 -655.5828785 1628.56118858 -655.1171875 1623.421875 C-655.02077972 1622.35920662 -655.02077972 1622.35920662 -654.92242432 1621.27507019 C-654.86036804 1620.59092545 -654.79831177 1619.9067807 -654.734375 1619.2019043 C-653.71100286 1607.94828686 -652.56923055 1596.72117394 -651.1643219 1585.50840759 C-650.39880859 1579.37057472 -649.69282474 1573.2301834 -649.0403595 1567.07937622 C-647.24914366 1550.31580087 -644.97946855 1533.63017052 -642.63662338 1516.9369278 C-642.30723956 1514.58747801 -641.97930712 1512.23782962 -641.65176392 1509.88812256 C-638.04096685 1483.99641736 -634.23097763 1458.13879435 -630.26525879 1432.29891968 C-628.9868561 1423.95547041 -627.7694806 1415.60401511 -626.5625 1407.25 C-623.97219815 1389.41502322 -621.12574371 1371.61974051 -618.29711914 1353.82128906 C-616.4482232 1342.18628863 -614.61041814 1330.54985874 -612.81640625 1318.90625 C-612.65530869 1317.86218994 -612.49421112 1316.81812988 -612.32823181 1315.74243164 C-611.21238284 1308.4748981 -610.16273266 1301.19938463 -609.13598633 1293.91880798 C-608.21309499 1287.40818398 -607.22911084 1280.90834872 -606.22265625 1274.41015625 C-605.86657181 1272.10369805 -605.51062128 1269.79721918 -605.15478516 1267.49072266 C-604.9672467 1266.27547913 -604.77970825 1265.0602356 -604.58648682 1263.8081665 C-603.66827048 1257.84601938 -602.75709848 1251.88279808 -601.84545517 1245.9196434 C-601.20322051 1241.72073904 -600.55950741 1237.5220611 -599.91583061 1233.32337761 C-599.36925006 1229.75748334 -598.82339847 1226.1914803 -598.27905273 1222.62524414 C-597.63471728 1218.40479242 -596.98837008 1214.18465355 -596.33984375 1209.96484375 C-596.2364802 1209.29213566 -596.13311665 1208.61942757 -596.02662086 1207.92633438 C-594.65331292 1199.00833379 -593.17177388 1190.12019131 -591.5612793 1181.24243164 C-590.8424742 1177.0899956 -590.32816332 1172.9444904 -589.9375 1168.75 C-588.81340678 1157.13066016 -586.78632294 1145.64020973 -584.89453125 1134.12670898 C-582.80660092 1121.41268075 -580.76581856 1108.7010926 -579 1095.9375 C-576.9374307 1081.14653914 -574.46780912 1066.43100921 -571.96728516 1051.70947266 C-571.05790552 1046.35059015 -570.15827567 1040.9900932 -569.25930786 1035.62945557 C-557.6577339 966.46812905 -557.6577339 966.46812905 -551.55053711 936.81787109 C-550.44096106 931.37464603 -549.43252325 925.91635006 -548.44921875 920.44921875 C-545.45482086 903.82943279 -542.30280408 887.30476927 -538.48510742 870.85253906 C-536.68075078 863.07071176 -535.01923432 855.27976247 -533.5 847.4375 C-531.48880792 837.1089483 -529.15104026 826.87590895 -526.72436523 816.63769531 C-524.72307504 808.17189878 -522.82449119 799.69121105 -520.99343872 791.18731689 C-517.62855785 775.57222991 -513.93202793 760.05209092 -510.11523438 744.54199219 C-508.9066274 739.6264696 -507.71073119 734.70788211 -506.515625 729.7890625 C-502.03270464 711.34545615 -497.50797551 692.91377114 -492.87841797 674.50634766 C-491.91371324 670.65557241 -490.95814782 666.80259649 -490.00390625 662.94921875 C-486.85325352 650.24161721 -483.65910637 637.55861667 -480.14599609 624.94506836 C-478.29178434 618.22779344 -476.65573964 611.47092564 -475.0625 604.6875 C-472.37327468 593.29553384 -469.29987533 582.04466994 -466.08056641 570.79248047 C-464.82823713 566.39716121 -463.59082174 561.99777091 -462.35546875 557.59765625 C-458.29450531 543.1381946 -454.23016413 528.67913538 -450.0625 514.25 C-449.67578125 512.89733032 -449.67578125 512.89733032 -449.28125 511.51733398 C-447.99609677 507.10046082 -446.57848191 502.77519702 -444.98046875 498.4609375 C-443.14109602 493.48951812 -441.64459291 488.48613991 -440.25 483.375 C-437.93562286 475.09112595 -435.43538035 466.87886413 -432.8125 458.6875 C-432.47959961 457.6444873 -432.14669922 456.60147461 -431.80371094 455.52685547 C-430.23507026 450.65933981 -428.60474571 445.83809006 -426.77514648 441.06274414 C-425.13542209 436.69926967 -423.64704868 432.28056626 -422.125 427.875 C-417.44171785 414.37467864 -417.44171785 414.37467864 -415.25 408.1875 C-414.90453125 407.21167969 -414.5590625 406.23585938 -414.203125 405.23046875 C-412.86877164 401.64764333 -411.44482869 398.10642618 -410.01757812 394.55981445 C-408.8076751 391.51618845 -407.65986291 388.45223974 -406.51611328 385.38330078 C-388.49822224 337.19408097 -367.3679203 289.99880011 -342.578125 244.9140625 C-341.36136325 242.66726976 -340.16595027 240.41367352 -338.984375 238.1484375 C-329.59487615 220.16182904 -319.010918 203.03661923 -308 186 C-307.60570801 185.38785645 -307.21141602 184.77571289 -306.80517578 184.14501953 C-293.12823668 162.97817218 -277.60836435 142.93502046 -261 124 C-259.96552734 122.81470703 -259.96552734 122.81470703 -258.91015625 121.60546875 C-257.78581803 120.31875346 -256.65861095 119.03453391 -255.52734375 117.75390625 C-254.44012338 116.50541022 -253.37167026 115.24046452 -252.31640625 113.96484375 C-251.77886719 113.31644531 -251.24132812 112.66804688 -250.6875 112 C-250.21699219 111.4225 -249.74648438 110.845 -249.26171875 110.25 C-248 109 -248 109 -246 109 C-245.7834375 108.45859375 -245.566875 107.9171875 -245.34375 107.359375 C-243.53500003 104.18354656 -241.08276201 101.79271919 -238.5 99.25 C-238.00113281 98.74339844 -237.50226563 98.23679687 -236.98828125 97.71484375 C-233.25341139 94 -233.25341139 94 -231 94 C-231 93.34 -231 92.68 -231 92 C-229.77734375 90.73046875 -229.77734375 90.73046875 -227.9375 89.1875 C-225.17867686 86.84976039 -222.43114573 84.50565012 -219.7265625 82.10546875 C-198.29025556 63.1423567 -174.54144397 46.0363709 -149 33 C-148.10555176 32.54318848 -147.21110352 32.08637695 -146.28955078 31.61572266 C-131.22624664 24.00367029 -115.93946066 17.53623629 -100 12 C-99.27055176 11.74138184 -98.54110352 11.48276367 -97.78955078 11.21630859 C-68.77357416 1.01653898 -30.45176558 -6.26280723 0 0 Z " fill="#F7F3ED" transform="translate(1070,314)"/>
<path d="M0 0 C2.1535727 0.50682125 4.30722224 1.01331612 6.4609375 1.51953125 C33.08298517 7.87996183 59.0834855 16.21738874 84.99804688 24.97729492 C85.71940826 25.22099319 86.44076965 25.46469147 87.18399048 25.71577454 C88.58502265 26.18912776 89.98588526 26.66298322 91.38656616 27.13737488 C94.99899226 28.35381311 98.6191204 29.49240187 102.28515625 30.53515625 C106.97523154 31.90820993 111.40763415 33.7616206 115.8984375 35.6796875 C118.98968136 36.99560743 122.09780557 38.25631538 125.21875 39.5 C126.25386719 39.9125 127.28898437 40.325 128.35546875 40.75 C129.91201172 41.36875 129.91201172 41.36875 131.5 42 C164.82614914 55.24766177 197.67609028 69.55463758 226 92 C226.75796875 92.5671875 227.5159375 93.134375 228.296875 93.71875 C234.93097403 98.70608686 240.99201483 104.28902234 247 110 C247.53705566 110.50837402 248.07411133 111.01674805 248.62744141 111.54052734 C260.79424841 123.13571511 270.7120419 136.01627126 280 150 C280.94746094 151.38058594 280.94746094 151.38058594 281.9140625 152.7890625 C297.00454215 175.82843677 306.43598604 203.04123131 311.60302734 229.97607422 C311.98005124 231.89829321 312.40476212 233.81097795 312.83203125 235.72265625 C316.5166428 253.56488852 317.26388619 272.81215202 317 291 C318.27101563 291.2475 319.54203125 291.495 320.8515625 291.75 C325.79588268 292.73851597 330.72267447 293.79875016 335.6484375 294.875 C336.43204651 295.04596191 337.21565552 295.21692383 338.02301025 295.39306641 C341.29438648 296.10723487 344.56560907 296.82206247 347.8359375 297.54101562 C358.95436575 300.00666504 358.95436575 300.00666504 370.1640625 302 C375.4130987 302.82776925 380.52191097 304.07141853 385.66334534 305.39157104 C390.66684758 306.67529647 395.68420819 307.86917763 400.72265625 309.0078125 C401.46930542 309.17702713 402.21595459 309.34624176 402.98522949 309.52058411 C404.53823767 309.87251394 406.09127786 310.22430259 407.64434814 310.57595825 C438.31802272 317.54042075 468.72013184 325.49361164 499 334 C501.15354939 334.60190768 503.30719392 335.20347506 505.4609375 335.8046875 C509.59617466 336.95958217 513.73013519 338.11889581 517.86328125 339.28125 C522.06533105 340.46162378 526.27134244 341.62637215 530.48046875 342.78125 C540.80066964 345.62274065 551.05875697 348.52217874 561.16967773 352.04711914 C564.99397414 353.37504544 568.7929201 354.45234814 572.7331543 355.40307617 C604.83762191 363.85707976 637.49936782 376.91134246 666 394 C666.93328125 394.54785156 667.8665625 395.09570312 668.828125 395.66015625 C689.31968062 408.1452807 706.63414551 424.08703885 720 444 C720.70511719 445.0209375 721.41023438 446.041875 722.13671875 447.09375 C732.74265939 463.26312119 738.60865027 481.08438969 742 500 C742.12987305 500.70882324 742.25974609 501.41764648 742.39355469 502.14794922 C746.27827416 524.13415562 744.32011492 547.66667528 738 569 C737.72542969 569.98484375 737.45085937 570.9696875 737.16796875 571.984375 C731.35807459 591.19151369 720.75007352 609.69964876 708.3046875 625.35546875 C707.39390614 626.50348957 706.49084475 627.65765886 705.59375 628.81640625 C691.60947543 646.84301019 675.43508998 663.51762076 657 677 C655.94918348 677.8231178 654.9023242 678.65131123 653.859375 679.484375 C638.7124 691.5504506 622.12150782 701.02803841 605 710 C604.31583008 710.36182373 603.63166016 710.72364746 602.92675781 711.09643555 C597.72364409 713.78349264 592.35789383 715.89232542 586.875 717.9375 C585.94413574 718.28594971 585.01327148 718.63439941 584.05419922 718.9934082 C582.20151803 719.68555706 580.34818335 720.37595971 578.49414062 721.06445312 C576.43037333 721.83856788 574.37764402 722.64203875 572.328125 723.453125 C554.75115777 730.22668798 535.64258018 732.96544454 517 735 C516.05527832 735.10441406 515.11055664 735.20882812 514.13720703 735.31640625 C441.56507058 743.00037178 367.77795006 728.63164328 298.4921875 707.93359375 C294.855891 706.84748803 291.2187058 705.76741551 287.5703125 704.72265625 C280.8239638 702.78428817 274.13136555 700.73009293 267.4609375 698.54296875 C266.78075562 698.32064575 266.10057373 698.09832275 265.39978027 697.8692627 C261.97125411 696.74808589 258.54554674 695.61942155 255.12402344 694.47705078 C247.81421472 692.06240337 240.63131449 690.09231761 233 689 C232.62415771 689.69746338 232.24831543 690.39492676 231.86108398 691.11352539 C224.97236692 703.84229163 217.97431968 716.43212276 210.0625 728.5625 C209.47331787 729.46943604 208.88413574 730.37637207 208.27709961 731.31079102 C200.92396336 742.41521192 192.62189522 753.20950326 182.421875 761.828125 C179.20604753 764.71199608 176.2131687 767.79399362 173.1875 770.875 C168.18622935 775.94562161 163.08984616 780.58012164 157.5 785 C155.14594114 786.88324708 152.91459982 788.84440899 150.6875 790.875 C141.35216239 799.25843378 131.19730508 806.71013239 121 814 C119.98035156 814.74507812 118.96070313 815.49015625 117.91015625 816.2578125 C108.69444332 822.9686155 99.19636869 829.213456 89.58691406 835.34423828 C87.11953032 836.92349428 84.66514276 838.52146881 82.2109375 840.12109375 C57.62145675 855.94401938 31.07690206 869.13180615 3.45703125 878.7109375 C2.08496521 879.18889771 2.08496521 879.18889771 0.68518066 879.67651367 C-1.54273647 880.45239073 -3.77113156 881.22686095 -6 882 C-7.58220431 912.42383188 -8.33601717 942.76386777 -8.25754547 973.2277298 C-8.2498467 976.50271255 -8.24581707 979.77768329 -8.24261475 983.05267334 C-8.20569436 1015.24338076 -7.8568087 1047.42452222 -7.18766785 1079.60826492 C-7.12615884 1082.56921517 -7.06629709 1085.53019579 -7.00646973 1088.49118042 C-6.30224789 1122.73685809 -5.03600958 1156.86980721 -1.3125 1190.9375 C-1.12033401 1192.73048523 -1.12033401 1192.73048523 -0.92428589 1194.55969238 C2.76491212 1228.82221273 8.09475489 1262.74402009 14.74258423 1296.55039978 C15.71436855 1301.50061573 16.65060084 1306.45638597 17.5625 1311.41796875 C20.54958441 1327.6533446 23.8045388 1343.81142926 27.3359375 1359.93798828 C28.12586492 1363.58036685 28.88313273 1367.22886531 29.63549805 1370.87915039 C31.04797576 1377.72033299 32.56903447 1384.51372779 34.30053711 1391.28295898 C35.69429274 1396.73556146 37.01233916 1402.20432739 38.31884766 1407.6784668 C44.10881228 1431.90095791 50.16987374 1456.05023513 57.11425781 1479.9699707 C59.4069919 1487.87118221 61.57587575 1495.79859485 63.6875 1503.75 C66.00102395 1512.42379752 68.46340707 1521.000384 71.21777344 1529.54541016 C72.80943437 1534.53996665 74.34885554 1539.55096037 75.89877319 1544.55859375 C76.88768968 1547.75187891 77.87964099 1550.94422017 78.87109375 1554.13671875 C80.05497933 1557.95054728 81.23683035 1561.76494145 82.41015625 1565.58203125 C89.58746155 1588.81703653 97.15954219 1611.9069533 107.23046875 1634.0625 C108.57776546 1637.03199497 109.83219494 1640.01694673 111 1643.0625 C116.18547586 1656.27419067 122.88284244 1668.87106029 129.58447266 1681.36035156 C130.56637967 1683.19139307 131.54499351 1685.02420289 132.52099609 1686.85839844 C145.15405577 1710.59842861 158.77335842 1733.66709874 174.41796875 1755.55859375 C176 1758 176 1758 176 1760 C162.14 1760 148.28 1760 134 1760 C131.36 1755.38 128.72 1750.76 126 1746 C123.93365046 1742.65352172 121.85473578 1739.321646 119.75 1736 C113.0250212 1725.24592011 106.93468844 1714.20545054 101 1703 C100.49049805 1702.04270996 99.98099609 1701.08541992 99.45605469 1700.09912109 C70.8848844 1646.33337337 51.55963422 1588.90051711 34.73626709 1530.54992676 C33.95104385 1527.83044932 33.16254977 1525.11193444 32.37353516 1522.39355469 C24.77994786 1496.21639619 17.48141144 1469.98538883 10.70108032 1443.58546448 C9.58470141 1439.24319658 8.44588512 1434.9085489 7.26953125 1430.58203125 C3.12071573 1415.28074671 -0.15695474 1399.80558416 -3.4440918 1384.30142212 C-4.62253594 1378.74959003 -5.82501295 1373.20344566 -7.04296875 1367.66015625 C-11.52986349 1347.21136639 -15.71911847 1326.72076131 -19.59503174 1306.14727783 C-19.99115294 1304.04691011 -20.38963378 1301.94700181 -20.78857422 1299.84716797 C-29.43862289 1254.2121746 -35.93380944 1208.35756485 -39 1162 C-39.0485614 1161.27065247 -39.0971228 1160.54130493 -39.14715576 1159.78985596 C-39.88759524 1148.5394581 -40.41828973 1137.28342529 -40.87567139 1126.01824951 C-41.00443677 1122.89229115 -41.14101384 1119.76672877 -41.27783203 1116.64111328 C-43.08941897 1074.23007855 -43.21467319 1031.8002846 -43.24422681 989.35795552 C-43.24749444 984.76751842 -43.25338804 980.17709571 -43.26163113 975.58666492 C-43.27612284 967.48886443 -43.27849113 959.39116155 -43.2687645 951.29335403 C-43.26577812 948.56925702 -43.26774817 945.84530715 -43.27228165 943.12119675 C-43.297636 924.64649754 -42.5118003 906.40768692 -41 888 C-41.62254166 887.94426315 -42.24508331 887.88852631 -42.88648987 887.83110046 C-44.10778847 887.71107414 -44.10778847 887.71107414 -45.35375977 887.58862305 C-46.16192642 887.5122612 -46.97009308 887.43589935 -47.80274963 887.35722351 C-52.23143719 886.63721848 -54.4729367 883.46035373 -57 880 C-59.4893233 875.12958485 -60.1199167 869.3620254 -59 864 C-57.0731989 861.09897363 -54.80299364 859.04396248 -52 857 C-51.2471875 856.45085938 -50.494375 855.90171875 -49.71875 855.3359375 C-46.2413926 853.62723602 -43.55321932 853.62854747 -39.6875 853.5625 C19.13843117 851.0337228 82.40231018 802.56376022 126 766 C126.99 765.18402344 127.98 764.36804687 129 763.52734375 C139.81971321 754.55640989 150.08035942 744.95390532 160 735 C160.93392578 734.13568359 160.93392578 734.13568359 161.88671875 733.25390625 C175.71407801 720.26638659 186.29261487 701.69495976 195 685 C195.66329352 683.78142248 196.32881373 682.56405538 196.99609375 681.34765625 C199.05156152 677.59213846 201.03026228 673.80117471 203 670 C203.46148438 669.17113281 203.92296875 668.34226562 204.3984375 667.48828125 C210.0788317 655.94620367 207.85461965 639.76749924 204 628 C200.21725195 617.24096893 195.30854901 607.07970089 190 597 C189.62359375 596.2790918 189.2471875 595.55818359 188.859375 594.81542969 C179.10272125 576.25339592 166.68829947 559.74018492 153.5378418 543.46899414 C133.7095149 518.88740901 133.7095149 518.88740901 129 506 C129.28427723 503.56673981 129.63543492 502.36592347 131.37597656 500.61889648 C131.95831055 500.20712158 132.54064453 499.79534668 133.140625 499.37109375 C133.79240723 498.89929688 134.44418945 498.4275 135.11572266 497.94140625 C135.82003418 497.44511719 136.5243457 496.94882812 137.25 496.4375 C138.72366786 495.36645749 140.19499208 494.29218358 141.6640625 493.21484375 C142.39915039 492.67585449 143.13423828 492.13686523 143.89160156 491.58154297 C148.56995459 488.07223647 152.96704812 484.22560606 157.38476562 480.39746094 C159.62154905 478.46225109 161.87245599 476.54375579 164.12231445 474.6237793 C165.89662167 473.1065106 167.6653763 471.58295251 169.43359375 470.05859375 C171.74194473 468.07093441 174.06711301 466.10675685 176.41015625 464.16015625 C184.61340914 457.28430543 192.292158 449.92106971 199.875 442.375 C200.36136932 441.89380707 200.84773865 441.41261414 201.34884644 440.9168396 C208.03011708 434.29177223 214.14297556 427.36473028 220 420 C221.02359114 418.76770659 222.05044885 417.53811153 223.08203125 416.3125 C239.80604519 396.16712126 253.06588336 372.60072832 262 348 C262.52022694 346.62477046 263.04095313 345.24972951 263.5625 343.875 C263.78292969 343.27945312 264.00335937 342.68390625 264.23046875 342.0703125 C266.83491288 335.06343236 269.50749779 328.10075977 272.5 321.25 C277.23532083 309.92119446 280.78854506 298.339906 281 286 C281.01901367 285.36046387 281.03802734 284.72092773 281.05761719 284.06201172 C282.0881401 247.78253699 273.82025166 210.734345 256 179 C255.64969727 178.3694873 255.29939453 177.73897461 254.93847656 177.08935547 C237.14133956 145.37271464 210.13427984 122.10660262 179 104 C177.88987549 103.34620361 177.88987549 103.34620361 176.75732422 102.67919922 C166.8981086 96.89578809 156.91354006 92.04347965 146.3046875 87.7890625 C143.45938541 86.63880696 140.71418546 85.39062809 137.98046875 83.99609375 C133.88581069 81.90751632 129.70635216 80.1377713 125.4375 78.4375 C124.18827759 77.93802856 124.18827759 77.93802856 122.91381836 77.4284668 C113.41668234 73.68778754 103.786841 70.31117871 94.15209961 66.94506836 C87.02288467 64.45115332 79.95029516 61.84916134 72.90991211 59.11401367 C69.05558154 57.63844438 65.17009202 56.28901225 61.25 55 C60.48743896 54.74782715 59.72487793 54.4956543 58.93920898 54.23583984 C52.63260934 52.16944702 46.28624806 50.2647021 39.91015625 48.42578125 C36.01474126 47.3015454 32.12972522 46.14475078 28.24609375 44.98046875 C27.05169678 44.6232373 25.8572998 44.26600586 24.62670898 43.89794922 C22.25968259 43.18951439 19.89327814 42.47899723 17.52758789 41.76611328 C12.11418556 40.15091642 6.73590088 38.61264505 1.1953125 37.4987793 C-0.66210151 37.0767712 -2.49880807 36.56515655 -4.328125 36.03442383 C-10.46904866 34.30443091 -16.73587216 33.18505621 -23 32 C-24.05714706 31.79874008 -24.05714706 31.79874008 -25.13565063 31.59341431 C-36.99041943 29.3560477 -48.77248444 27.86515705 -60.82885742 27.2019043 C-63 27 -63 27 -65.46826172 26.49243164 C-109.17015967 17.99226499 -160.9006076 35.60113745 -200 54 C-200.86270508 54.40186523 -201.72541016 54.80373047 -202.61425781 55.21777344 C-214.57957224 60.83599334 -225.79018041 67.30380025 -236.82617188 74.57128906 C-238.83823085 75.89368002 -240.86181171 77.19571104 -242.890625 78.4921875 C-256.81354474 87.47276416 -269.89026884 97.69758425 -282 109 C-283.45175269 110.31977517 -284.9097735 111.63269976 -286.375 112.9375 C-286.98085938 113.48277344 -287.58671875 114.02804687 -288.2109375 114.58984375 C-290.0524655 116.04135381 -291.87138806 117.02946548 -294 118 C-294 118.66 -294 119.32 -294 120 C-295.50390625 121.4453125 -295.50390625 121.4453125 -297.5625 123.125 C-301.21564666 126.22307491 -304.3231661 129.52098581 -307.421875 133.1640625 C-310.02338412 136.19057063 -312.88973372 138.93630118 -315.76953125 141.6953125 C-320.82255057 146.61876722 -325.28751624 151.86025057 -329.68701172 157.37060547 C-331.11023647 159.13680145 -332.55509083 160.88364864 -334.00390625 162.62890625 C-342.12312808 172.4427789 -349.67612369 182.58159371 -357 193 C-357.47679199 193.67530762 -357.95358398 194.35061523 -358.44482422 195.04638672 C-365.53171687 205.10992311 -372.17611673 215.42876119 -378.67773438 225.87841797 C-379.80384467 227.68526776 -380.93994254 229.4858866 -382.078125 231.28515625 C-387.67812902 240.21457442 -392.79460752 249.4125294 -397.953125 258.6015625 C-400.18924548 262.57946014 -402.472709 266.51996002 -404.8125 270.4375 C-411.1376036 281.22281179 -416.3336825 292.63771834 -421.6484375 303.94287109 C-423.98341191 308.8976948 -426.39476861 313.8040905 -428.875 318.6875 C-445.05322747 350.81024705 -458.24065776 384.40410633 -471 418 C-471.57391746 419.49881332 -472.14808349 420.99753152 -472.72265625 422.49609375 C-475.74755414 430.4585687 -478.63118843 438.47239233 -481.50994873 446.48867798 C-482.16772416 448.31994349 -482.82724337 450.15058235 -483.48681641 451.98120117 C-485.59986646 457.89351023 -487.61556525 463.79877886 -489.32983398 469.83984375 C-490.05139799 472.16567192 -490.93334017 474.38006096 -491.875 476.625 C-494.72816252 483.59102321 -496.82128414 490.80248265 -499 498 C-499.83027679 500.73812511 -500.66079642 503.47617611 -501.49169922 506.21411133 C-502.08386131 508.16556202 -502.67532509 510.11722473 -503.26611328 512.0690918 C-505.59829195 519.74937158 -508.0176045 527.39967611 -510.51513672 535.02783203 C-512.33149141 540.64789872 -513.90959611 546.30839056 -515.41049194 552.0206604 C-517.23038653 558.92902716 -519.19914417 565.79267193 -521.17486572 572.6578064 C-522.28090569 576.50374885 -523.38005203 580.35166439 -524.48046875 584.19921875 C-525.65670685 588.30988626 -526.83347042 592.42039367 -528.01416016 596.52978516 C-532.20536484 611.13726715 -536.01186714 625.82108075 -539.65748596 640.57217407 C-541.27759632 647.1266497 -542.94123345 653.66557102 -544.6875 660.1875 C-546.63944438 667.48804746 -548.42226636 674.82183807 -550.12573242 682.18432617 C-551.4505372 687.86377625 -552.91919305 693.49635353 -554.43389893 699.12808228 C-556.30672455 706.10697915 -558.06632841 713.11345947 -559.8125 720.125 C-559.98263611 720.80643066 -560.15277222 721.48786133 -560.32806396 722.18994141 C-563.1080786 733.32674507 -565.82239217 744.47837422 -568.49755859 755.64086914 C-570.02739993 762.01404708 -571.59410055 768.37519617 -573.21484375 774.72583008 C-578.7642948 796.50930025 -583.57235464 818.51188118 -588.015625 840.546875 C-588.71134698 843.83811341 -589.52221712 847.09475765 -590.35195923 850.354599 C-592.78542209 859.91555825 -594.87282475 869.5280766 -596.875 879.1875 C-597.22414937 880.86178006 -597.57351811 882.53601438 -597.9230957 884.21020508 C-598.62287571 887.56424794 -599.32072801 890.91868338 -600.01708984 894.2734375 C-600.89631148 898.50670312 -601.78482839 902.73793813 -602.67578125 906.96875 C-605.36345221 919.77521256 -607.89862634 932.59828509 -610.24682617 945.47143555 C-611.57317563 952.73931652 -612.98246328 959.98481828 -614.45143127 967.22499084 C-618.719475 988.40324715 -622.36034481 1009.69633111 -625.9375 1031 C-626.59672981 1034.91197251 -627.25668953 1038.8238214 -627.91673279 1042.73565674 C-628.34906813 1045.29807608 -628.78117026 1047.86053478 -629.21302795 1050.42303467 C-630.77294887 1059.67428478 -632.35595416 1068.9213488 -633.95294189 1078.16625977 C-638.7644543 1106.05032586 -643.07713148 1133.97951057 -647 1162 C-649.933257 1182.93811089 -649.933257 1182.93811089 -651.44970703 1190.84472656 C-652.15518604 1194.88980676 -652.71761042 1198.94922919 -653.28515625 1203.015625 C-655.04888452 1215.49722388 -656.94648178 1227.95780764 -658.85180664 1240.41845703 C-659.43453117 1244.23057826 -660.01522569 1248.04300478 -660.59570312 1251.85546875 C-662.57423184 1264.82704518 -664.58488677 1277.7925404 -666.67808533 1290.74615479 C-667.65948439 1296.82503826 -668.59983504 1302.90856336 -669.5 1309 C-670.77585441 1317.61602336 -672.14366042 1326.21560021 -673.5546875 1334.81054688 C-674.40802244 1340.06584134 -675.18213465 1345.3205886 -675.859375 1350.6015625 C-677.23045574 1361.05032648 -678.93477031 1371.44728265 -680.59591675 1381.8531189 C-681.6165467 1388.25273455 -682.62846928 1394.65372697 -683.640625 1401.0546875 C-683.94564186 1402.98331886 -683.94564186 1402.98331886 -684.25682068 1404.95091248 C-690.62786265 1445.26825295 -696.44074851 1485.66134878 -702.16009426 1526.07526398 C-702.90538327 1531.33875168 -703.65691435 1536.60133018 -704.41020203 1541.86367798 C-707.52472876 1563.63596045 -710.38218368 1585.4115657 -712.71026611 1607.28240967 C-713.02871903 1610.26937327 -713.35003971 1613.25602219 -713.67138672 1616.24267578 C-718.3574592 1659.90891091 -723.02494315 1703.66920532 -725.45605469 1747.5300293 C-725.51696289 1748.61968994 -725.57787109 1749.70935059 -725.640625 1750.83203125 C-725.68735352 1751.74702393 -725.73408203 1752.6620166 -725.78222656 1753.60473633 C-726 1756 -726 1756 -727 1760 C-738.22 1760 -749.44 1760 -761 1760 C-761 1752.82411486 -760.97600782 1745.85242998 -760.44921875 1738.73046875 C-760.39078796 1737.89902344 -760.33235718 1737.06757812 -760.27215576 1736.2109375 C-760.08223967 1733.53607354 -759.88539021 1730.86178499 -759.6875 1728.1875 C-759.62063995 1727.2660318 -759.55377991 1726.3445636 -759.4848938 1725.39517212 C-758.34094672 1709.65480712 -756.93954405 1693.95463012 -755.33203125 1678.25488281 C-754.84961161 1673.52575149 -754.389918 1668.79458433 -753.9375 1664.0625 C-753.85878662 1663.24604004 -753.78007324 1662.42958008 -753.69897461 1661.58837891 C-753.16484837 1655.96863573 -752.70082108 1650.34493458 -752.25219727 1644.71777344 C-751.57682263 1636.26807179 -750.79511247 1627.91093113 -749.48828125 1619.53125 C-749.01862075 1616.13466526 -748.6936987 1612.75641089 -748.40332031 1609.34130859 C-747.47774353 1598.49614538 -746.01490953 1587.7570416 -744.42608643 1576.99304199 C-742.57194778 1564.40273738 -740.96742493 1551.7924025 -739.43780518 1539.15884399 C-737.47582007 1522.97206801 -735.297069 1506.87748652 -732.49353027 1490.81433105 C-730.51906418 1479.49580477 -728.9281664 1468.1755748 -727.56881714 1456.76742554 C-726.53735188 1448.11383903 -725.33452666 1439.56576624 -723.71875 1431.00390625 C-722.65529243 1425.27905706 -721.88932133 1419.50786957 -721.08959961 1413.74145508 C-719.46491453 1402.03148252 -717.59056449 1390.35854595 -715.7578125 1378.6796875 C-715.32666858 1375.92840959 -714.89577279 1373.17709282 -714.46484375 1370.42578125 C-713.79861903 1366.17259374 -713.1320963 1361.91945369 -712.46435547 1357.66650391 C-709.86807139 1341.12792432 -707.31822325 1324.58434661 -704.89013672 1308.02001953 C-703.55983314 1298.98339707 -702.18204974 1289.95811794 -700.63414001 1280.95603943 C-698.83493513 1270.46171054 -697.23249845 1259.94501744 -695.74609375 1249.40234375 C-695.6515453 1248.73234974 -695.55699684 1248.06235573 -695.45958328 1247.37205887 C-694.5839424 1241.1588417 -693.71682142 1234.94444057 -692.85180664 1228.72973633 C-692.37106697 1225.27799955 -691.88597238 1221.82689476 -691.3985157 1218.37610054 C-691.13214013 1216.48093476 -690.87070379 1214.58507673 -690.60948181 1212.68919373 C-689.55223513 1205.20388724 -688.2251502 1197.82723267 -686.67514038 1190.43180847 C-685.56375106 1184.78250145 -684.88816027 1179.0871022 -684.1875 1173.375 C-682.22206543 1158.0552343 -679.7627833 1142.83466162 -677.24494934 1127.59747314 C-676.20573494 1121.29268476 -675.19691258 1114.9833577 -674.19921875 1108.671875 C-674.04832291 1107.7173645 -673.89742706 1106.762854 -673.74195862 1105.77941895 C-673.43750083 1103.85247041 -673.13312346 1101.92550916 -672.8288269 1099.99853516 C-668.46131645 1072.34439053 -668.46131645 1072.34439053 -666.15380859 1059.81689453 C-665.43418087 1055.84866163 -664.87602715 1051.93297395 -664.5234375 1047.9140625 C-664.17640022 1044.11799724 -663.48451595 1040.61321431 -662.49072266 1036.93994141 C-661.63686788 1033.56445381 -661.18895995 1030.12975066 -660.6875 1026.6875 C-658.1865354 1010.22503352 -655.01757451 993.86670637 -651.68359375 977.5546875 C-650.71153669 972.49999081 -649.88509554 967.42290544 -649.08935547 962.33764648 C-648.52430012 958.80464393 -647.86901083 955.35079291 -646.96875 951.88671875 C-645.77529229 947.29080519 -645.23479087 942.66178148 -644.66015625 937.953125 C-644.18282642 934.67575212 -643.39965838 931.51899534 -642.57421875 928.3125 C-640.99864734 922.16695911 -639.84454744 915.99630579 -638.75 909.75 C-635.0878643 889.45138647 -630.69337583 869.25428455 -625.68554688 849.24462891 C-624.47509945 844.32799973 -623.50529939 839.3873409 -622.6015625 834.40625 C-621.227393 826.88175722 -619.49810136 819.47886275 -617.64053345 812.06082153 C-614.98231705 801.43472226 -612.46342562 790.80481198 -610.3125 780.0625 C-608.78395515 772.43884282 -606.98098741 764.98465806 -604.80615234 757.52075195 C-603.25787911 752.1408996 -602.04380134 746.73673045 -600.9375 741.25 C-599.60972141 734.66527515 -597.98430752 728.27699553 -596.0625 721.8359375 C-594.50096229 716.19832708 -593.25219414 710.49638844 -592.01391602 704.7800293 C-590.55129573 698.12682224 -588.85073336 691.55128076 -587.10157776 684.96922302 C-585.30239037 678.18635723 -583.56385771 671.3892573 -581.84375 664.5859375 C-581.5712291 663.51004868 -581.29870819 662.43415985 -581.01792908 661.32566833 C-579.89550794 656.89372753 -578.77379445 652.46161676 -577.65673828 648.02832031 C-574.81526223 636.75817766 -571.94746806 625.51814666 -568.59864807 614.38674927 C-567.19023703 609.70033093 -565.9859011 605.02875849 -564.9375 600.25 C-563.6098366 594.38542947 -562.02623765 588.68768281 -560.1953125 582.95703125 C-558.48337883 577.4359702 -557.04998525 571.83461463 -555.5625 566.25 C-552.85532858 556.11770888 -550.05000448 546.03404297 -547 536 C-546.71012207 535.04158203 -546.42024414 534.08316406 -546.12158203 533.09570312 C-542.3882771 520.77143597 -538.5801135 508.48054472 -534.43408203 496.28808594 C-532.93989974 491.88369629 -531.52089405 487.46562498 -530.16796875 483.015625 C-527.85215657 475.43745912 -525.35772875 467.92240054 -522.84594727 460.4074707 C-522.06497707 458.06991422 -521.28721825 455.73130655 -520.50976562 453.39257812 C-516.36202803 440.94180995 -512.02919708 428.58572454 -507.28125 416.34863281 C-505.90975431 412.76413685 -504.58750887 409.16330271 -503.28125 405.5546875 C-502.93864136 404.61015717 -502.93864136 404.61015717 -502.58911133 403.64654541 C-501.65742189 401.07637612 -500.72668937 398.50589126 -499.80224609 395.93310547 C-497.21312511 388.73545798 -494.49146603 381.66812652 -491.25048828 374.73486328 C-488.88633813 369.56438105 -486.81098833 364.27272309 -484.6875 359 C-483.7181454 356.61039403 -482.74808956 354.2210724 -481.77734375 351.83203125 C-481.30538574 350.67010254 -480.83342773 349.50817383 -480.34716797 348.31103516 C-475.84610516 337.24843752 -471.29915494 326.33291459 -465.8359375 315.703125 C-463.6178042 311.31523645 -461.67057919 306.81005493 -459.6875 302.3125 C-456.0375874 294.09168328 -452.03271692 286.13628562 -447.77734375 278.21484375 C-445.7402861 274.41887793 -443.76558147 270.59573352 -441.81640625 266.75390625 C-433.50577252 250.41137461 -424.54035578 234.65040238 -415 219 C-414.36102783 217.94546631 -413.72205566 216.89093262 -413.0637207 215.80444336 C-408.56983958 208.43247733 -403.89681773 201.20302629 -399.09057617 194.03295898 C-397.932041 192.30435484 -396.77728342 190.57327358 -395.62304688 188.84179688 C-389.37758399 179.48764233 -383.02112273 170.23259805 -376.25 161.25 C-375.73977295 160.57243652 -375.2295459 159.89487305 -374.70385742 159.19677734 C-367.49870065 149.65880797 -360.28543681 140.22774281 -352.1796875 131.4296875 C-349.85377619 128.837005 -347.67662192 126.15639451 -345.5 123.4375 C-341.31835868 118.26893284 -336.78539298 113.60711363 -332 109 C-328.2746379 105.363337 -324.88195139 101.57014568 -321.55078125 97.57421875 C-321.03902344 97.05472656 -320.52726562 96.53523438 -320 96 C-319.34 96 -318.68 96 -318 96 C-318 95.34 -318 94.68 -318 94 C-316.671875 92.66015625 -316.671875 92.66015625 -314.75 91.0625 C-311.69513673 88.47472479 -308.72499754 85.82706627 -305.80664062 83.0859375 C-299.76285038 77.42926584 -293.41982576 72.2819015 -286.78320312 67.33300781 C-284.87419744 65.90595811 -282.97570745 64.46563726 -281.078125 63.0234375 C-269.71026219 54.40411997 -258.10598861 46.27282809 -246.0625 38.625 C-245.25707764 38.11259766 -244.45165527 37.60019531 -243.62182617 37.07226562 C-239.50276625 34.47972389 -235.3997768 32.09598004 -231 30 C-229.19908854 29.09954427 -227.39818317 28.19907631 -225.59741211 27.29833984 C-224.23923799 26.61950495 -222.88065251 25.94149267 -221.52172852 25.26416016 C-217.98018332 23.4975785 -214.4454784 21.71992053 -210.92578125 19.91015625 C-196.44519424 12.49469435 -181.53120582 6.8116529 -166 2 C-165.18740723 1.74718262 -164.37481445 1.49436523 -163.53759766 1.23388672 C-110.12140984 -15.07995773 -53.81776227 -13.13727063 0 0 Z " fill="#1D120E" transform="translate(1133,288)"/>
<path d="M0 0 C5.81756851 0.65008177 11.46824135 1.6370627 17.1875 2.875 C18.02917725 3.05426025 18.87085449 3.23352051 19.73803711 3.41821289 C24.1929314 4.37280264 28.63186211 5.37536078 33.0625 6.4375 C37.1065746 7.39053005 41.156945 8.22807566 45.2421875 8.98046875 C65.00249015 12.62048217 84.48598134 17.23440777 104 22 C104.70709106 22.17247253 105.41418213 22.34494507 106.1427002 22.52264404 C118.53213922 25.54732505 130.91112005 28.57746334 143.1484375 32.17578125 C148.80642424 33.81117194 154.53906249 35.1566348 160.26025391 36.55078125 C169.49713735 38.80767494 178.68525199 41.08274894 187.74658203 43.98095703 C190.90123494 44.96906458 194.06593206 45.89451706 197.24609375 46.796875 C198.47424805 47.1462915 199.70240234 47.49570801 200.96777344 47.85571289 C202.3118209 48.2372408 203.65589734 48.6186666 205 49 C225.85593415 54.91770023 246.61282789 60.93943168 267.11230469 68.01220703 C271.14837724 69.39282502 275.20124379 70.72154867 279.25537109 72.0480957 C283.07818642 73.37394137 286.77890398 74.94069024 290.49609375 76.53515625 C293.16475934 77.65081912 295.83427369 78.71407642 298.53515625 79.74609375 C336.16699958 94.19785214 371.19730945 116.59159322 389 154 C400.44664669 179.7882654 402.04859783 211.34835612 392.6015625 237.94921875 C384.39633354 259.19960311 372.46615832 276.84701828 357.15625 293.625 C355.2143852 295.76386558 353.32022404 297.93419385 351.4375 300.125 C345.41226945 307.00506875 338.95359986 313.01480428 331.80859375 318.7265625 C329.71319257 320.42270087 327.67734935 322.14585942 325.6484375 323.91796875 C300.98499932 345.13555793 269.62384352 361.64728816 238 369.0625 C236.90695557 369.31999023 235.81391113 369.57748047 234.68774414 369.84277344 C211.00324492 375.30642957 186.96896295 377.58560681 162.66845703 377.05761719 C160.95085583 377.02053083 159.23304155 376.99186171 157.51513672 376.97363281 C114.97844022 376.48324752 72.36607013 368.49131967 31.36328125 357.61865234 C29.19508743 357.05106937 27.02303207 356.51141474 24.84375 355.98828125 C5.12145896 351.2380953 -14.23515865 345.05407426 -33.60351562 339.05126953 C-39.60817599 337.19272529 -45.61685172 335.34723084 -51.625 333.5 C-53.82553765 332.82297134 -56.02606011 332.14589328 -58.2265625 331.46875 C-59.15033691 331.18451172 -60.07411133 330.90027344 -61.02587891 330.60742188 C-62.00306885 330.30674805 -62.00306885 330.30674805 -63 330 C-63.07516846 329.06841064 -63.15033691 328.13682129 -63.2277832 327.17700195 C-63.51655722 323.65561785 -63.81399071 320.13517235 -64.11694336 316.61499023 C-64.24531368 315.10355395 -64.37042103 313.59183627 -64.49194336 312.07983398 C-65.53565811 299.13863005 -67.57088999 286.8967608 -72.1875 274.6875 C-72.48865723 273.8840918 -72.78981445 273.08068359 -73.10009766 272.25292969 C-79.74128285 254.95924251 -89.16871534 238.98369402 -100 224 C-101.23213448 222.2520883 -102.46130292 220.50208202 -103.6875 218.75 C-104.54601563 217.52410156 -104.54601563 217.52410156 -105.421875 216.2734375 C-107.31955226 213.53965491 -109.17099512 210.78008742 -111 208 C-106.60743296 208.58750584 -102.31941201 209.32630772 -98 210.3125 C-90.67196647 211.91332175 -83.30469737 213.19718961 -75.91015625 214.45068359 C-71.33385318 215.2308021 -66.76855843 216.02603815 -62.22265625 216.96875 C-43.98522801 220.73341783 -25.4749688 222.76913026 -7 225 C-6.21605865 225.09509857 -5.43211731 225.19019714 -4.62442017 225.28817749 C-2.33449206 225.56528477 -0.04427218 225.83981839 2.24609375 226.11328125 C2.92142151 226.19482452 3.59674927 226.2763678 4.2925415 226.36038208 C9.63998387 226.99253805 14.99002961 227.41678803 20.36328125 227.75390625 C23 228 23 228 24.7487793 228.48095703 C37.54375938 231.4309763 52.07053423 230.18624239 65.10546875 230.18530273 C68.46627696 230.18747817 71.82674994 230.20567072 75.1875 230.22460938 C95.0774955 230.27725009 114.69136976 228.85658126 134.375 226 C135.56609375 225.835 136.7571875 225.67 137.984375 225.5 C151.72266608 224.47276539 151.72266608 224.47276539 163 218 C166.14880541 212.13885727 168.08610034 206.62521205 167 200 C163.93877184 194.71045734 159.51573476 191.41918191 154 189 C150.03974052 188.55166874 146.66736769 189.04176526 142.82421875 189.89453125 C136.06255894 191.2702027 129.22801134 192.0227388 122.37841797 192.80493164 C120.13582599 193.06126258 117.89406425 193.32405774 115.65234375 193.58789062 C101.81340082 195.20413499 88.12291147 196.26679117 74.1875 196.3125 C73.38452484 196.31545074 72.58154968 196.31840149 71.75424194 196.32144165 C50.56104367 196.33875066 29.53586931 194.3442776 8.46484375 192.24346924 C6.26749252 192.02642204 4.06967524 191.81693333 1.87109375 191.61279297 C-17.91759857 189.76365918 -37.44033216 186.45447123 -57 183 C-58.24910156 182.78053711 -59.49820312 182.56107422 -60.78515625 182.33496094 C-73.67578177 180.05447652 -86.50716726 177.53139509 -99.3125 174.8125 C-100.49392578 174.56242188 -101.67535156 174.31234375 -102.89257812 174.0546875 C-103.99666016 173.81621094 -105.10074219 173.57773437 -106.23828125 173.33203125 C-107.20805908 173.12296143 -108.17783691 172.9138916 -109.17700195 172.69848633 C-112.18203705 171.95495909 -115.07665453 171.01518193 -118 170 C-113.87473906 165.82695612 -109.64736857 161.77203447 -105.375 157.75 C-104.70726562 157.11320313 -104.03953125 156.47640625 -103.3515625 155.8203125 C-102.38476562 154.91152344 -102.38476562 154.91152344 -101.3984375 153.984375 C-100.52711182 153.16018066 -100.52711182 153.16018066 -99.63818359 152.31933594 C-98 151 -98 151 -95 150 C-95 149.34 -95 148.68 -95 148 C-93.56640625 146.58984375 -93.56640625 146.58984375 -91.5625 144.9375 C-83.26939116 138.31188514 -83.26939116 138.31188514 -77 130 C-76.34 130 -75.68 130 -75 130 C-75 129.34 -75 128.68 -75 128 C-74.34 128 -73.68 128 -73 128 C-72.59031982 127.11163452 -72.59031982 127.11163452 -72.17236328 126.20532227 C-71.03558098 124.06693107 -69.85533874 122.50899712 -68.2421875 120.71484375 C-67.70311768 120.10769531 -67.16404785 119.50054688 -66.60864258 118.875 C-66.03654053 118.235625 -65.46443848 117.59625 -64.875 116.9375 C-59.53253323 110.86109348 -54.57050731 104.68631331 -50 98 C-49.62311035 97.4544043 -49.2462207 96.90880859 -48.85791016 96.34667969 C-38.67743948 81.5737311 -29.67408328 66.22026466 -22 50 C-21.60304932 49.18265381 -21.20609863 48.36530762 -20.79711914 47.52319336 C-17.04377903 39.59534391 -14.54251767 31.46938827 -12.12695312 23.05273438 C-10.32044149 17.09307074 -8.38848653 12.44216046 -4.3527832 7.65893555 C-2.44663797 5.32140498 -1.2321368 2.73808177 0 0 Z " fill="#E59C4A" transform="translate(1444,614)"/>
<path d="M0 0 C4.44782886 3.1219596 8.96379242 6.43038424 10 12 C10.61688314 17.08276957 10.80437916 21.49015123 8 25.9375 C4.94708504 29.51184947 1.59216678 31.18921685 -3 32 C-4.93929089 32.09474706 -6.87888854 32.18730704 -8.81958008 32.24682617 C-16.63016883 32.48902195 -22.24274705 33.30425616 -28 39 C-30.27135906 41.52764072 -32.1842915 44.13094779 -34 47 C-34.61875 47.928125 -35.2375 48.85625 -35.875 49.8125 C-37.96617144 55.73748574 -37.79037233 61.62888302 -35.8125 67.5625 C-34.79719009 69.48808775 -33.76752762 71.40682666 -32.6875 73.296875 C-29.44260519 79.23355755 -27.58577187 84.20258092 -29 91 C-30.76521998 94.97922469 -33.14968214 97.37238444 -36.625 99.9375 C-42.61714803 101.82391697 -48.44755846 102.12896453 -54.25 99.5625 C-64.14873131 90.33868218 -72.61892303 76.32750774 -73.3359375 62.58203125 C-73.51620143 53.02007566 -73.01602407 44.84575237 -69 36 C-68.62617187 35.13117187 -68.25234375 34.26234375 -67.8671875 33.3671875 C-60.07638816 16.49572139 -46.33545247 5.20162381 -29.13085938 -1.203125 C-19.7977932 -4.35248193 -8.86090573 -4.84713653 0 0 Z " fill="#1E1310" transform="translate(1102,520)"/>
<path d="M0 0 C5.09448798 0.43173627 8.84512277 0.75400216 13 4 C13 4.66 13 5.32 13 6 C8.52761347 4.58192622 4.28853694 2.88695626 0 1 C0 0.67 0 0.34 0 0 Z " fill="#D18F45" transform="translate(1763,664)"/>
</svg>
